<svg width="103" height="32" viewBox="0 0 103 32" fill="none" xmlns="http://www.w3.org/2000/svg">
<path d="M1.5 6.9729C1.5 6.91718 1.53207 6.88933 1.59622 6.88933C1.67938 6.88933 1.81124 6.94383 1.99181 7.05284C3.66918 8.10901 5.84668 8.63709 8.52431 8.63709C10.1637 8.63709 11.7615 8.34761 13.3177 7.76866C13.5909 7.6645 13.8736 7.49493 14.1658 7.25995C14.4082 7.03225 14.6541 6.80696 14.9036 6.5841L14.9321 6.5405C14.9321 6.4654 14.7812 6.40606 14.4795 6.36245C14.3132 6.32612 14.1373 6.30068 13.952 6.28615C13.8356 6.26677 13.7049 6.205 13.56 6.10083C13.3984 6.00151 13.3129 5.89251 13.3034 5.77381V5.49039C13.3034 5.02286 13.5089 4.51294 13.9199 3.96064C14.331 3.40833 14.7503 3.08978 15.178 3.005C15.4084 3.10431 15.5237 3.26056 15.5237 3.47373C15.5237 3.56821 15.4987 3.70265 15.4488 3.87706C15.3871 4.06359 15.3098 4.16533 15.2172 4.18229C15.0271 3.98365 14.9024 3.88433 14.843 3.88433C14.6885 3.88433 14.451 4.06722 14.1302 4.433C13.8118 4.79637 13.6527 5.06162 13.6527 5.22877C13.6527 5.28448 13.661 5.31961 13.6776 5.33414C13.851 5.45284 14.0114 5.52188 14.1587 5.54126C14.6387 5.61151 14.8917 5.65148 14.9178 5.66117C15.2101 5.75079 15.3562 5.93974 15.3562 6.22801C15.3562 6.68827 15.1566 7.14247 14.7574 7.59061C14.4058 7.96124 13.9972 8.24345 13.5315 8.43724C12.7997 8.73036 11.9741 8.97623 11.0546 9.17487C10.0971 9.38319 9.24895 9.48736 8.51005 9.48736C6.51906 9.48736 4.95216 9.26328 3.80936 8.81514C3.55039 8.69644 3.38883 8.62256 3.32468 8.59349C2.89227 8.29553 2.54777 8.04724 2.29117 7.8486C1.76372 7.38834 1.5 7.09644 1.5 6.9729Z" fill="#417F56"/>
<path d="M16.0868 0.795761C16.1462 0.403331 16.2412 0.152612 16.3719 0.0436033C16.3932 0.0678274 16.4111 0.0847842 16.4253 0.0944739C16.4871 0.431188 16.5607 0.97623 16.6463 1.7296C16.7318 2.48054 16.8031 3.1564 16.8601 3.75715C16.9195 4.35791 16.9492 4.67525 16.9492 4.70916C16.9492 4.77941 16.9314 4.89084 16.8957 5.04345C16.8625 5.19364 16.7924 5.29538 16.6855 5.34868C16.6094 4.73338 16.5334 4.12173 16.4574 3.5137C16.3837 2.90568 16.303 2.30734 16.2151 1.7187C16.1295 1.12763 16.0868 0.819985 16.0868 0.795761Z" fill="#417F56"/>
<path d="M19.3227 4.59652C19.3227 4.39788 19.4071 4.07812 19.5757 3.63724C19.7611 3.20606 19.9202 2.91294 20.0533 2.75791C20.3693 2.92748 20.595 3.07888 20.7304 3.21211C20.9157 3.4059 21.0084 3.65662 21.0084 3.96427C21.0084 4.53111 20.8183 4.93565 20.4382 5.1779C20.4097 5.22634 20.3241 5.26389 20.1816 5.29054C20.0414 5.31476 19.9321 5.32687 19.8537 5.32687C19.685 5.32687 19.5496 5.24693 19.4474 5.08705C19.3643 4.93929 19.3227 4.77578 19.3227 4.59652ZM19.7682 4.26223C19.7682 4.31794 19.8003 4.37608 19.8644 4.43664C19.9309 4.49478 19.9832 4.52385 20.0212 4.52385H20.1317C20.3645 4.52385 20.5154 4.47419 20.5843 4.37487C20.5843 4.19561 20.5237 4.03815 20.4026 3.9025C20.2814 3.76442 20.1448 3.68085 19.9927 3.65178C19.843 3.91582 19.7682 4.1193 19.7682 4.26223Z" fill="#417F56"/>
<path d="M21.2044 7.53611C21.2044 7.48766 21.3779 7.41378 21.7247 7.31446C22.2451 7.14004 22.6026 6.99349 22.7974 6.87479C23.161 6.65677 23.4092 6.40606 23.5423 6.12263C23.566 6.05238 23.5779 6.01241 23.5779 6.00272C23.5779 5.69508 23.5506 5.44436 23.496 5.25057C23.4674 5.16821 23.3558 4.93081 23.161 4.53838C23.1918 4.14595 23.2453 3.90977 23.3213 3.82983L23.4674 3.92067C23.6052 4.13868 23.6837 4.2598 23.7027 4.28403C23.7906 4.38335 23.9117 4.45602 24.0662 4.50204C24.2562 4.57956 24.3786 4.60621 24.4332 4.58198V5.33414C24.2479 5.34383 24.065 5.32203 23.8844 5.26874V5.6103C23.8844 6.06086 23.7573 6.48236 23.5031 6.87479C23.2512 7.26722 22.9257 7.54701 22.5266 7.71416C21.6451 7.7408 21.2044 7.68145 21.2044 7.53611Z" fill="#417F56"/>
<path d="M24.2907 4.58198C24.4119 4.58683 24.5889 4.53717 24.8217 4.433C25.0545 4.32884 25.1935 4.27676 25.2387 4.27676C25.3266 4.27676 25.4786 4.32763 25.6948 4.42937C25.911 4.53111 26.0845 4.58198 26.2152 4.58198V5.33414C26.0655 5.33414 25.8849 5.27843 25.6735 5.16699C25.462 5.05556 25.3171 4.99985 25.2387 4.99985C25.203 4.99985 25.0807 5.05556 24.8716 5.16699C24.6625 5.27843 24.4903 5.33414 24.3548 5.33414H24.2907V4.58198ZM25.2957 6.5732C25.4074 6.24133 25.5095 6.05844 25.6022 6.02453C25.6853 6.06813 25.7756 6.12263 25.873 6.18804C25.9752 6.27282 26.0453 6.34913 26.0833 6.41696C26.0096 6.7997 25.9051 6.99107 25.7697 6.99107C25.7198 6.99107 25.6295 6.93899 25.4988 6.83482C25.3967 6.72581 25.329 6.63861 25.2957 6.5732ZM24.4404 6.90749C24.4404 6.79364 24.5283 6.60833 24.7041 6.35155C24.9726 6.5405 25.1448 6.67373 25.2208 6.75125V6.77668C25.2208 6.86389 25.1971 6.97048 25.1496 7.09644C25.0949 7.22967 25.0415 7.29629 24.9892 7.29629C24.9298 7.29629 24.8229 7.24542 24.6685 7.14368C24.5164 7.04194 24.4404 6.96321 24.4404 6.90749Z" fill="#417F56"/>
<path d="M26.0548 4.58198C26.4397 4.58198 26.8519 4.53232 27.2914 4.433C27.7666 4.30946 28.1598 4.15806 28.4711 3.9788C27.8628 3.77048 27.5183 3.66631 27.4376 3.66631C27.3354 3.66631 27.1762 3.70265 26.96 3.77532C26.7462 3.84799 26.581 3.88433 26.4646 3.88433C26.581 3.46768 26.6499 3.25087 26.6713 3.23391C26.7331 3.11522 26.8887 2.98925 27.1382 2.85602C27.2237 2.80757 27.3425 2.78335 27.4946 2.78335C27.5587 2.78335 27.8213 2.88509 28.2822 3.08857C28.793 3.32112 29.0995 3.45435 29.2016 3.48827C29.7315 3.65299 30.2352 3.73535 30.7127 3.73535C30.7579 3.77411 30.7828 3.8056 30.7876 3.82983C30.7876 3.91945 30.7258 4.09629 30.6022 4.36033H30.4811C30.1579 4.36033 29.9144 4.3349 29.7505 4.28403L29.7291 4.3894L29.7505 4.51658C29.8479 4.6159 29.9916 4.66556 30.1817 4.66556C30.4668 4.66556 30.7341 4.6377 30.9836 4.58198V5.33414L30.2031 5.34868C30.013 5.35352 29.8562 5.29054 29.7327 5.15973C29.6115 5.02892 29.5509 4.86662 29.5509 4.67282C29.5509 4.64133 29.5557 4.59531 29.5652 4.53475C29.577 4.47176 29.583 4.42332 29.583 4.3894V4.28403C29.3573 4.28403 29.0935 4.33611 28.7918 4.44027C28.3784 4.59531 28.0553 4.72975 27.8224 4.8436C27.3663 5.03255 27.0919 5.13914 26.9992 5.16336C26.688 5.27721 26.4005 5.33414 26.1368 5.33414H26.0548V4.58198ZM27.8688 6.5623C27.9757 6.17956 28.0874 5.9785 28.2038 5.95912C28.2774 5.96881 28.3748 6.00878 28.496 6.07903C28.6481 6.17835 28.7241 6.26313 28.7241 6.33338C28.7241 6.38668 28.6991 6.47994 28.6493 6.61317C28.6017 6.73429 28.5507 6.81908 28.496 6.86752H28.4604C28.3677 6.86752 28.256 6.83482 28.1254 6.76942C27.9543 6.71612 27.8688 6.64708 27.8688 6.5623Z" fill="#417F56"/>
<path d="M30.6806 2.2274C30.7876 1.84466 30.8992 1.6436 31.0156 1.62422C31.0893 1.63391 31.1867 1.67388 31.3079 1.74413C31.4599 1.84345 31.536 1.92824 31.536 1.99849C31.536 2.05178 31.511 2.14504 31.4611 2.27827C31.4136 2.39939 31.3625 2.48418 31.3079 2.53263H31.2722C31.1796 2.53263 31.0679 2.49992 30.9372 2.43452C30.7662 2.38123 30.6806 2.31219 30.6806 2.2274ZM30.8624 4.58198C31.1926 4.58683 31.3791 4.51537 31.4219 4.3676C31.4077 4.30704 31.3494 4.19319 31.2473 4.02604C31.1594 3.88554 31.1083 3.76805 31.094 3.67358C31.1487 3.51612 31.214 3.3405 31.2901 3.14671H31.3221C31.429 3.14671 31.5312 3.30295 31.6286 3.61544C31.7308 3.88917 31.7819 4.10477 31.7819 4.26223C31.7819 4.60378 31.7284 4.85935 31.6215 5.02892C31.4932 5.2324 31.2734 5.33414 30.9622 5.33414H30.8624V4.58198Z" fill="#417F56"/>
<path d="M31.536 6.85299C32.187 6.81181 32.5707 6.77668 32.6871 6.74761C33.0316 6.63861 33.3678 6.4218 33.6956 6.0972C34.0259 5.7726 34.2492 5.43104 34.3656 5.07252C34.254 4.87388 34.1471 4.67888 34.0449 4.48751C33.8786 4.16775 33.7954 3.95821 33.7954 3.85889L33.8204 3.77896C33.8299 3.75958 33.8608 3.67964 33.913 3.53914C33.9534 3.41559 33.9926 3.35382 34.0306 3.35382C34.1423 3.35382 34.2742 3.51976 34.4262 3.85163C34.5807 4.13989 34.6579 4.3567 34.6579 4.50204C34.6579 5.46858 34.3704 6.24739 33.7954 6.83845C33.5246 7.10492 33.2454 7.23815 32.9579 7.23815C32.7869 7.23815 32.3533 7.17638 31.6571 7.05284C31.6381 7.0383 31.5977 6.99349 31.536 6.91839V6.85299ZM33.1183 2.56533C33.2252 2.18259 33.3369 1.98153 33.4533 1.96215C33.5269 1.97184 33.6244 2.01181 33.7455 2.08206C33.8976 2.18138 33.9736 2.26616 33.9736 2.33641C33.9736 2.3897 33.9487 2.48297 33.8988 2.6162C33.8513 2.73732 33.8002 2.8221 33.7455 2.87055H33.7099C33.6172 2.87055 33.5056 2.83785 33.3749 2.77244C33.2038 2.71915 33.1183 2.65011 33.1183 2.56533Z" fill="#417F56"/>
<path d="M26.5608 6.9729C26.5608 6.91718 26.5929 6.88933 26.6571 6.88933C26.7402 6.88933 26.8721 6.94383 27.0527 7.05284C28.73 8.10901 30.9075 8.63709 33.5852 8.63709C35.2245 8.63709 36.8223 8.34761 38.3785 7.76866C38.6517 7.6645 38.9345 7.49493 39.2267 7.25995C39.469 7.03225 39.7149 6.80696 39.9644 6.5841L39.9929 6.5405C39.9929 6.4654 39.8421 6.40606 39.5403 6.36245C39.374 6.32612 39.1982 6.30068 39.0129 6.28615C38.8965 6.26677 38.7658 6.205 38.6208 6.10083C38.4593 6.00151 38.3738 5.89251 38.3643 5.77381V5.49039C38.3643 5.02286 38.5698 4.51294 38.9808 3.96064C39.3918 3.40833 39.8112 3.08978 40.2388 3.005C40.4693 3.10431 40.5845 3.26056 40.5845 3.47373C40.5845 3.56821 40.5596 3.70265 40.5097 3.87706C40.4479 4.06359 40.3707 4.16533 40.278 4.18229C40.088 3.98365 39.9632 3.88433 39.9038 3.88433C39.7494 3.88433 39.5118 4.06722 39.1911 4.433C38.8727 4.79637 38.7135 5.06162 38.7135 5.22877C38.7135 5.28448 38.7218 5.31961 38.7385 5.33414C38.9119 5.45284 39.0723 5.52188 39.2196 5.54126C39.6995 5.61151 39.9525 5.65148 39.9787 5.66117C40.2709 5.75079 40.417 5.93974 40.417 6.22801C40.417 6.68827 40.2174 7.14247 39.8183 7.59061C39.4667 7.96124 39.058 8.24345 38.5923 8.43724C37.8606 8.73036 37.0349 8.97623 36.1155 9.17487C35.158 9.38319 34.3098 9.48736 33.5709 9.48736C31.5799 9.48736 30.013 9.26328 28.8702 8.81514C28.6112 8.69644 28.4497 8.62256 28.3855 8.59349C27.9531 8.29553 27.6086 8.04724 27.352 7.8486C26.8246 7.38834 26.5608 7.09644 26.5608 6.9729Z" fill="#417F56"/>
<path d="M40.9872 0.741257C41.0561 0.346404 41.1048 0.0993187 41.1333 0C41.1975 0.0581378 41.2415 0.162301 41.2652 0.31249C41.2961 0.380318 41.3187 0.489326 41.3329 0.639515C41.5753 2.44905 41.6988 3.39379 41.7036 3.47373C41.7725 3.9461 41.8259 4.21378 41.8639 4.27676C41.9708 4.48024 42.1752 4.58198 42.4769 4.58198V5.33414C42.0493 5.33414 41.7891 5.24936 41.6964 5.07979C41.6228 4.97562 41.5479 4.73823 41.4719 4.3676C41.4505 4.20288 41.4161 3.94731 41.3686 3.60091C41.1975 2.13293 41.0704 1.17971 40.9872 0.741257Z" fill="#417F56"/>
<path d="M42.3379 4.58198C42.5304 4.58198 42.7466 4.55049 42.9865 4.48751C43.274 4.41726 43.476 4.33732 43.5924 4.24769C43.4665 3.96911 43.4035 3.81287 43.4035 3.77896C43.4035 3.66995 43.4522 3.53793 43.5496 3.38289C43.6518 3.20121 43.7124 3.07525 43.7314 3.005C43.6625 2.96139 43.628 2.88388 43.628 2.77244C43.628 2.65859 43.6625 2.5302 43.7314 2.38728C43.7979 2.21771 43.8775 2.13293 43.9702 2.13293C44.2624 2.13293 44.601 2.36185 44.9859 2.81968C45.2923 3.17578 45.4527 3.36351 45.467 3.38289C45.6665 3.65662 45.7663 3.89039 45.7663 4.08418C45.7663 4.17381 45.676 4.3676 45.4955 4.66556C45.4432 4.73338 45.3482 4.7673 45.2104 4.7673C44.7447 4.7673 44.3954 4.70795 44.1626 4.58925C43.8846 4.74428 43.609 4.89811 43.3358 5.05072C42.9462 5.23967 42.6349 5.33414 42.4021 5.33414H42.3379V4.58198ZM44.5119 4.10598C44.9443 4.21983 45.2044 4.27676 45.2923 4.27676C45.3565 4.27676 45.3886 4.25254 45.3886 4.20409C45.3886 4.10477 45.2781 3.94126 45.0571 3.71355C44.8979 3.53914 44.7399 3.39985 44.5831 3.29569C44.6235 3.56215 44.5998 3.83225 44.5119 4.10598ZM43.628 3.79349C43.628 3.84921 43.6375 3.87948 43.6565 3.88433C43.8038 3.96669 43.9523 3.99818 44.102 3.9788C44.2636 3.8698 44.3444 3.75594 44.3444 3.63724C44.3444 3.53793 44.3194 3.44345 44.2695 3.35382C44.2172 3.26904 44.1495 3.22665 44.0664 3.22665C43.9927 3.22665 43.9013 3.30174 43.792 3.45193C43.6827 3.5997 43.628 3.71355 43.628 3.79349Z" fill="#417F56"/>
<path d="M36.4434 6.83845C36.4434 6.80212 36.4707 6.78395 36.5253 6.78395C36.5942 6.78395 36.7427 6.84693 36.9708 6.9729C38.23 7.6221 39.3099 8.05814 40.2103 8.281C41.2129 8.51839 42.3569 8.63709 43.6423 8.63709C45.6166 8.63709 47.1776 8.45057 48.3252 8.07752C49.4751 7.70689 50.347 7.0056 50.941 5.97366C50.941 5.65148 50.8412 5.29417 50.6416 4.90174C50.4421 4.50931 50.3423 4.29129 50.3423 4.24769C50.3423 4.15322 50.4052 3.94247 50.5312 3.61544C50.5217 3.50643 50.543 3.45193 50.5953 3.45193C50.6927 3.45193 50.8412 3.71718 51.0408 4.24769C51.2451 4.75397 51.3473 5.09432 51.3473 5.26874C51.4304 5.94216 51.1453 6.65556 50.492 7.40893C49.841 8.16472 48.798 8.72309 47.3629 9.08403C46.1085 9.33353 44.8944 9.45829 43.7207 9.45829C42.787 9.45829 41.9019 9.41105 41.0656 9.31658C39.9418 9.16154 39.0996 8.93505 38.5389 8.63709C38.2086 8.46995 37.8439 8.21923 37.4448 7.88493C37.2642 7.71779 37.0789 7.55912 36.8888 7.40893C36.5918 7.13762 36.4434 6.94746 36.4434 6.83845ZM49.07 1.7514C49.07 1.70295 49.1223 1.60121 49.2268 1.44618C49.3313 1.28872 49.3979 1.20999 49.4264 1.20999C49.4668 1.20999 49.5666 1.25238 49.7257 1.33717C49.8968 1.43649 49.9823 1.51764 49.9823 1.58062C49.9823 1.62665 49.9336 1.72354 49.8362 1.87131C49.7483 2.04088 49.6723 2.12566 49.6081 2.12566C49.5511 2.12566 49.4466 2.07721 49.2945 1.98032C49.1448 1.88342 49.07 1.80712 49.07 1.7514Z" fill="#417F56"/>
<path d="M51.8961 0.795761C51.9555 0.403331 52.0505 0.152612 52.1812 0.0436033C52.2026 0.0678274 52.2204 0.0847842 52.2347 0.0944739C52.2965 0.431188 52.3701 0.97623 52.4556 1.7296C52.5412 2.48054 52.6124 3.1564 52.6695 3.75715C52.7289 4.35791 52.7586 4.67525 52.7586 4.70916C52.7586 4.77941 52.7407 4.89084 52.7051 5.04345C52.6718 5.19364 52.6018 5.29538 52.4948 5.34868C52.4188 4.73338 52.3428 4.12173 52.2668 3.5137C52.1931 2.90568 52.1123 2.30734 52.0244 1.7187C51.9389 1.12763 51.8961 0.819985 51.8961 0.795761Z" fill="#417F56"/>
<path d="M52.5412 6.85299C53.1922 6.81181 53.5759 6.77668 53.6923 6.74761C54.0368 6.63861 54.373 6.4218 54.7009 6.0972C55.0311 5.7726 55.2544 5.43104 55.3708 5.07252C55.2592 4.87388 55.1523 4.67888 55.0501 4.48751C54.8838 4.16775 54.8006 3.95821 54.8006 3.85889L54.8256 3.77896C54.8351 3.75958 54.866 3.67964 54.9182 3.53914C54.9586 3.41559 54.9978 3.35382 55.0359 3.35382C55.1475 3.35382 55.2794 3.51976 55.4314 3.85163C55.5859 4.13989 55.6631 4.3567 55.6631 4.50204C55.6631 5.46858 55.3756 6.24739 54.8006 6.83845C54.5298 7.10492 54.2506 7.23815 53.9631 7.23815C53.7921 7.23815 53.3585 7.17638 52.6623 7.05284C52.6433 7.0383 52.6029 6.99349 52.5412 6.91839V6.85299Z" fill="#417F56"/>
<path d="M55.6453 6.79122C55.6643 6.77668 55.6999 6.76942 55.7522 6.76942H56.1121C56.6182 6.76942 56.9615 6.74519 57.1421 6.69674C57.3797 6.61681 57.6707 6.42786 58.0152 6.1299C58.3763 5.8271 58.5985 5.56185 58.6816 5.33414C58.2777 5.33414 58.0093 5.30628 57.8762 5.25057C57.6339 5.16821 57.5127 4.95746 57.5127 4.61832C57.5127 4.40515 57.5911 4.16533 57.7479 3.89886C57.9166 3.60091 58.0865 3.45193 58.2575 3.45193C58.3835 3.45193 58.5272 3.60818 58.6888 3.92067C58.8385 4.16291 58.9382 4.38335 58.9881 4.58198H59.177V5.33414H58.9133C58.88 5.67086 58.6935 6.04754 58.3538 6.46419C58.0069 6.85662 57.6731 7.11219 57.3523 7.23089C57.0649 7.18244 56.7358 7.12309 56.3652 7.05284C55.8852 6.94383 55.6453 6.85662 55.6453 6.79122ZM57.894 4.44027C58.0057 4.53475 58.1316 4.58198 58.2718 4.58198C58.2956 4.58198 58.3253 4.57714 58.3609 4.56745C58.3609 4.49235 58.3431 4.41847 58.3074 4.3458C58.2552 4.24648 58.197 4.19682 58.1328 4.19682C58.0164 4.19682 57.9368 4.27797 57.894 4.44027Z" fill="#417F56"/>
<path d="M59.0523 4.58198C59.1735 4.58683 59.3505 4.53717 59.5833 4.433C59.8161 4.32884 59.9551 4.27676 60.0003 4.27676C60.0882 4.27676 60.2402 4.32763 60.4564 4.42937C60.6726 4.53111 60.8461 4.58198 60.9768 4.58198V5.33414C60.8271 5.33414 60.6465 5.27843 60.4351 5.16699C60.2236 5.05556 60.0787 4.99985 60.0003 4.99985C59.9646 4.99985 59.8423 5.05556 59.6332 5.16699C59.4241 5.27843 59.2519 5.33414 59.1164 5.33414H59.0523V4.58198ZM59.9076 2.49992C60.0193 2.16805 60.1214 1.98516 60.2141 1.95125C60.2972 1.99485 60.3875 2.04936 60.4849 2.11476C60.5871 2.19955 60.6572 2.27585 60.6952 2.34368C60.6216 2.72642 60.517 2.91779 60.3816 2.91779C60.3317 2.91779 60.2414 2.86571 60.1107 2.76154C60.0086 2.65254 59.9409 2.56533 59.9076 2.49992ZM59.0523 2.83422C59.0523 2.72036 59.1402 2.53505 59.316 2.27827C59.5845 2.46722 59.7567 2.60045 59.8328 2.67797V2.70341C59.8328 2.79061 59.809 2.8972 59.7615 3.02316C59.7068 3.1564 59.6534 3.22301 59.6011 3.22301C59.5417 3.22301 59.4348 3.17214 59.2804 3.0704C59.1283 2.96866 59.0523 2.88993 59.0523 2.83422Z" fill="#417F56"/>
<path d="M60.8164 4.58198C61.1538 4.58198 61.4757 4.54201 61.7822 4.46207C62.2383 4.35307 62.5033 4.19682 62.5769 3.99334C62.6506 3.78986 62.7183 3.66389 62.78 3.61544C62.8014 3.62998 62.8121 3.66268 62.8121 3.71355C62.8121 3.87101 62.7682 4.08176 62.6803 4.3458C62.7468 4.37002 62.805 4.38213 62.8549 4.38213C63.3514 4.38213 63.6971 4.30704 63.892 4.15685C64.0131 4.05753 64.1058 3.89402 64.1699 3.66631C64.2317 3.4483 64.3279 3.31264 64.4586 3.25935L64.4764 3.28842C64.4859 3.30295 64.4907 3.31991 64.4907 3.33929C64.4907 3.41438 64.4586 3.59606 64.3945 3.88433C64.4634 3.99334 64.5335 4.05995 64.6047 4.08418C64.6261 4.08902 64.7307 4.11325 64.9184 4.15685L65.1037 4.08418C65.1037 4.03331 65.093 3.9788 65.0716 3.92067C65.0526 3.86011 65.0431 3.81771 65.0431 3.79349C65.0431 3.76442 65.0752 3.65057 65.1393 3.45193C65.2225 3.22422 65.264 3.1031 65.264 3.08857C65.3163 3.08857 65.3698 3.17214 65.4244 3.33929C65.4719 3.47252 65.4957 3.58153 65.4957 3.66631C65.4957 3.95942 65.4446 4.22468 65.3424 4.46207C65.207 4.77456 65.0122 4.93081 64.758 4.93081C64.632 4.93081 64.4182 4.83755 64.1165 4.65102C64.0428 4.8327 63.8706 4.9732 63.5997 5.07252C63.3907 5.14277 63.1685 5.1779 62.9333 5.1779C62.7005 5.1779 62.4842 5.14277 62.2847 5.07252C61.8238 5.24693 61.3937 5.33414 60.9946 5.33414H60.8164V4.58198Z" fill="#417F56"/>
<path d="M65.3781 6.85299C66.0291 6.81181 66.4128 6.77668 66.5292 6.74761C66.8737 6.63861 67.2099 6.4218 67.5378 6.0972C67.868 5.7726 68.0913 5.43104 68.2078 5.07252C68.0961 4.87388 67.9892 4.67888 67.887 4.48751C67.7207 4.16775 67.6376 3.95821 67.6376 3.85889L67.6625 3.77896C67.672 3.75958 67.7029 3.67964 67.7552 3.53914C67.7955 3.41559 67.8347 3.35382 67.8728 3.35382C67.9844 3.35382 68.1163 3.51976 68.2683 3.85163C68.4228 4.13989 68.5 4.3567 68.5 4.50204C68.5 5.46858 68.2125 6.24739 67.6376 6.83845C67.3667 7.10492 67.0875 7.23815 66.8001 7.23815C66.629 7.23815 66.1954 7.17638 65.4992 7.05284C65.4802 7.0383 65.4399 6.99349 65.3781 6.91839V6.85299Z" fill="#417F56"/>
<path d="M15.3121 25.3375H14.1265C12.6085 25.3375 11.2836 24.8612 10.1518 23.9088C9.09193 23.0205 8.33742 21.8299 7.88831 20.3371C7.6907 19.6777 7.25506 19.348 6.58139 19.348C6.18617 19.348 5.84934 19.4854 5.57089 19.7602C5.30142 20.0257 5.16669 20.3554 5.16669 20.7492C5.16669 21.143 5.30142 21.4819 5.57089 21.7658C5.84934 22.0405 6.18617 22.1779 6.58139 22.1779H8.75061V25.3375H6.7296C5.47208 25.3375 4.38523 24.9024 3.46904 24.0324C2.56183 23.1624 2.10823 22.068 2.10823 20.7492C2.10823 19.4946 2.54387 18.4231 3.41515 17.5347C4.28643 16.6464 5.34184 16.2022 6.58139 16.2022C7.54249 16.2022 8.42275 16.5044 9.22217 17.1089C10.0216 17.7042 10.5695 18.4734 10.8659 19.4167C11.4228 21.2575 12.5097 22.1779 14.1265 22.1779H15.3121V25.3375Z" fill="#417F56"/>
<path d="M21.1865 13.6608H19.6506C19.2284 13.6608 18.8646 13.5097 18.5592 13.2075C18.2538 12.8961 18.1011 12.5252 18.1011 12.0948C18.1011 11.6644 18.2538 11.2935 18.5592 10.9821C18.8646 10.6707 19.2284 10.515 19.6506 10.515C20.0727 10.515 20.432 10.6707 20.7284 10.9821C21.0338 11.2935 21.1865 11.6644 21.1865 12.0948V13.6608ZM26.495 25.3375H25.2959C24.0474 25.3375 22.8977 24.9482 21.8467 24.1698V25.3375H14.1265V22.1779H18.7613V16.2984H21.8467V18.2628C21.8467 19.3893 22.1656 20.3234 22.8033 21.0652C23.4411 21.807 24.2719 22.1779 25.2959 22.1779H26.495V25.3375Z" fill="#417F56"/>
<path d="M37.5702 25.3375H36.371C35.1225 25.3375 33.9728 24.9482 32.9218 24.1698V25.3375H25.2016V22.1779H29.8364V16.2984H32.9218V18.2628C32.9218 19.3893 33.2407 20.3234 33.8785 21.0652C34.5162 21.807 35.3471 22.1779 36.371 22.1779H37.5702V25.3375ZM35.0372 30.9285H33.4743C33.0521 30.9285 32.6883 30.7728 32.3829 30.4614C32.0865 30.1501 31.9383 29.7792 31.9383 29.3487C31.9383 28.9091 32.0865 28.5382 32.3829 28.236C32.6883 27.9338 33.0521 27.7827 33.4743 27.7827C33.9054 27.7827 34.2737 27.9338 34.5791 28.236C34.8845 28.5382 35.0372 28.9091 35.0372 29.3487V30.9285ZM31.5341 30.9285H29.9847C29.5535 30.9285 29.1852 30.7728 28.8798 30.4614C28.5834 30.1501 28.4352 29.7792 28.4352 29.3487C28.4352 28.9091 28.5834 28.5382 28.8798 28.236C29.1852 27.9338 29.5535 27.7827 29.9847 27.7827C30.4068 27.7827 30.7706 27.9338 31.076 28.236C31.3814 28.5382 31.5341 28.9091 31.5341 29.3487V30.9285Z" fill="#417F56"/>
<path d="M51.5825 25.3375H36.2767V22.1779H48.3219C48.0614 21.372 47.5944 20.7126 46.9207 20.1997C46.256 19.6869 45.4925 19.4305 44.6302 19.4305L40.0358 19.4442V16.2984H44.6302C46.5434 16.2984 48.1782 16.9898 49.5345 18.3727C50.8998 19.7464 51.5825 21.4132 51.5825 23.373V25.3375ZM43.6871 14.6774H42.1511C41.7289 14.6774 41.3652 14.5263 41.0598 14.2241C40.7544 13.9127 40.6017 13.5418 40.6017 13.1114C40.6017 12.6809 40.7544 12.31 41.0598 11.9986C41.3652 11.6873 41.7289 11.5316 42.1511 11.5316C42.5733 11.5316 42.9326 11.6873 43.229 11.9986C43.5344 12.31 43.6871 12.6809 43.6871 13.1114V14.6774Z" fill="#417F56"/>
<path d="M61.3433 25.3375H60.1442C58.9046 25.3375 57.7549 24.9482 56.695 24.1698V24.9253C56.695 26.9035 55.9944 28.5749 54.5932 29.9394C53.2009 31.3131 51.4584 32 49.3655 32V28.8542C50.614 28.8542 51.6335 28.4741 52.424 27.714C53.2234 26.9539 53.6231 26.0243 53.6231 24.9253V16.2984H56.695V18.2628C56.695 19.3893 57.0139 20.3234 57.6516 21.0652C58.2983 21.807 59.1292 22.1779 60.1442 22.1779H61.3433V25.3375Z" fill="#417F56"/>
<path d="M67.8644 25.3375H60.1442V22.1779H64.779V16.2984H67.8644V25.3375ZM67.9992 13.4411H66.4363C66.0141 13.4411 65.6503 13.2854 65.3449 12.974C65.0485 12.6626 64.9003 12.2917 64.9003 11.8613C64.9003 11.4217 65.0485 11.0508 65.3449 10.7486C65.6503 10.4463 66.0141 10.2952 66.4363 10.2952C66.8674 10.2952 67.2357 10.4463 67.5411 10.7486C67.8465 11.0508 67.9992 11.4217 67.9992 11.8613V13.4411ZM64.4961 13.4411H62.9467C62.5155 13.4411 62.1472 13.2854 61.8418 12.974C61.5454 12.6626 61.3972 12.2917 61.3972 11.8613C61.3972 11.4217 61.5454 11.0508 61.8418 10.7486C62.1472 10.4463 62.5155 10.2952 62.9467 10.2952C63.3688 10.2952 63.7326 10.4463 64.038 10.7486C64.3434 11.0508 64.4961 11.4217 64.4961 11.8613V13.4411Z" fill="#417F56"/>
<path d="M82.2531 19.2743C81.4044 18.9158 80.5556 18.6533 79.7834 18.058C80.479 18.0196 81.0087 18.3461 81.5958 18.4805C80.7598 17.7956 79.8664 17.1874 79.2155 16.2977C79.9047 16.7522 80.5939 17.2002 81.2831 17.6547C81.3023 17.6355 81.3214 17.6227 81.3342 17.6035C80.8683 17.117 80.4088 16.6369 79.943 16.1504C79.9621 16.1184 79.9813 16.0864 80.0004 16.0544C80.1919 16.1568 80.4152 16.2208 80.5684 16.3681C81.1874 16.9506 81.7809 17.5587 82.3808 18.1604C82.5403 18.3205 82.6807 18.4869 82.8594 18.6789C82.987 18.5573 83.0827 18.4549 83.1848 18.3717C83.3635 18.2372 83.3316 18.1092 83.2231 17.9428C82.4254 16.7393 81.3661 15.8048 80.1344 15.0942C79.19 14.5501 78.1689 14.1404 77.1861 13.6667C76.765 13.4619 76.3502 13.2443 75.929 13.033C75.9481 12.9818 75.9609 12.9306 75.98 12.8794C76.2927 12.9434 76.6118 13.001 76.9947 13.0778C76.3884 12.5593 75.7056 12.22 75.3227 11.5607C75.3419 11.5351 75.3546 11.5031 75.3738 11.4775C76.1396 11.9512 76.899 12.4249 77.7477 12.9498C77.1798 12.1752 76.6692 11.4839 76.1651 10.7926C76.1906 10.767 76.2161 10.7414 76.248 10.7157C76.5097 10.9718 76.7841 11.2086 77.0266 11.4775C77.6775 12.2072 78.2902 12.9754 78.9666 13.6731C79.2793 13.9932 79.7069 14.198 80.077 14.4605C80.5811 14.8126 81.0789 15.171 81.6277 15.5615C81.5894 15.4463 81.5767 15.3695 81.5384 15.3119C80.4854 13.5323 79.3304 11.8168 77.8626 10.3445C77.6073 10.0884 77.2627 9.90278 76.9309 9.74915C76.3629 9.4931 75.763 9.30106 75.1823 9.07702C74.8313 8.94259 74.4867 8.78896 74.2442 8.4817C74.257 8.44329 74.2697 8.41128 74.2825 8.37288C74.7867 8.5009 75.2972 8.63533 75.8013 8.76336C74.8122 7.86718 73.7337 7.06061 73.07 5.85717C73.9698 6.59972 74.8696 7.34227 75.763 8.09122C75.7886 8.07202 75.8141 8.04641 75.8332 8.02721C75.3482 7.33587 74.8632 6.63813 74.3846 5.94679C74.4165 5.91478 74.4484 5.88278 74.4803 5.85077C74.6335 5.9788 74.8122 6.08762 74.9334 6.24125C75.4567 6.91978 75.9353 7.64313 76.4905 8.30246C76.9628 8.85937 77.5244 9.34587 78.0157 9.88358C78.4688 10.3765 78.8836 10.9014 79.3112 11.4135C79.375 11.4903 79.4452 11.5735 79.509 11.6503C79.5346 11.6375 79.5601 11.6247 79.592 11.6055C79.509 11.4135 79.4261 11.215 79.3367 11.0294C78.9155 10.1524 78.5454 9.23705 78.0477 8.40488C77.3712 7.27826 76.5416 6.26045 75.4759 5.4667C75.2015 5.26185 74.8505 5.17224 74.525 5.03781C74.04 4.83297 73.5167 4.69854 73.1211 4.25045C73.6954 4.11603 74.1549 4.5001 74.7611 4.59612C74.2315 4.02001 73.4529 3.80876 73.1976 3.09182C73.2232 3.05341 73.2423 3.0214 73.2678 2.983C73.5167 3.12383 73.772 3.27106 74.0655 3.43749C73.8358 3.02781 73.6252 2.65653 73.421 2.27886C73.4401 2.25965 73.4593 2.24045 73.4784 2.22125C73.6124 2.33007 73.7656 2.41969 73.8677 2.54771C74.525 3.37348 75.1568 4.21844 75.8205 5.03141C76.4012 5.74195 77.0138 6.43329 77.6584 7.10542C77.4286 6.57412 77.218 6.03641 76.9628 5.5179C76.6437 4.85857 76.4076 4.15443 75.8715 3.62313C75.144 2.90618 74.4293 2.18284 73.7146 1.45309C73.5103 1.24185 73.338 1.005 73.1913 0.736147C74.0528 1.14583 74.6399 1.88838 75.3291 2.5093C75.3546 2.4901 75.3801 2.4773 75.4057 2.45809C75.0164 1.65793 74.6271 0.864173 74.2315 0.0640128C74.2634 0.044809 74.3017 0.0192038 74.3336 0C74.9526 0.921784 75.578 1.84357 76.197 2.76535C76.2161 2.75895 76.2417 2.75255 76.2608 2.74615C76.1396 2.08682 76.0183 1.43389 75.9034 0.774555C75.9417 0.761753 75.98 0.74895 76.0183 0.742549C76.0694 0.876976 76.1332 1.005 76.1587 1.14583C76.28 1.74115 76.3502 2.34927 76.5225 2.92539C76.7458 3.65513 77.0457 4.35927 77.3329 5.06341C77.4925 5.46029 77.6967 5.84437 77.9328 6.22845C77.9583 5.01861 77.5946 3.82797 77.735 2.61813C77.7732 2.61172 77.8052 2.60532 77.8434 2.59252C77.9519 2.88058 78.054 3.16863 78.1625 3.45669C78.1817 3.45669 78.2008 3.45669 78.22 3.45669C78.3157 2.93179 78.4114 2.40048 78.5199 1.82437C78.8262 2.04201 78.8071 2.28526 78.7815 2.5093C78.673 3.43749 78.5518 4.36567 78.4369 5.28746C78.4242 5.37708 78.4369 5.4667 78.4688 5.56271C78.8198 4.9802 78.9538 4.28886 79.4261 3.78956C79.458 3.79596 79.4899 3.80876 79.5154 3.81516C79.509 3.91118 79.5218 4.0136 79.4899 4.09682C79.3304 4.58332 79.1708 5.06341 78.9921 5.54351C78.6986 6.32447 78.539 7.12463 78.6794 7.95039C78.756 8.39208 78.9602 8.81456 79.1453 9.23065C79.6111 10.2933 80.0898 11.3495 80.5811 12.3993C80.8045 12.8794 81.0598 13.3403 81.3023 13.814C81.3406 13.8076 81.3725 13.7948 81.4108 13.7884C81.3661 13.5323 81.3406 13.2699 81.2831 13.0138C81.1363 12.3993 80.9704 11.7848 80.8173 11.1702C80.6705 10.5941 80.5109 10.0244 80.3897 9.44189C80.3195 9.09622 80.3067 8.73775 80.2684 8.38568C80.3131 8.37288 80.3514 8.36647 80.3961 8.35367C80.5556 8.73135 80.7215 9.11543 80.913 9.57632C81.0215 8.92339 81.1172 8.34727 81.2129 7.77116C81.2448 7.77116 81.2767 7.77756 81.3023 7.77756C81.3469 8.55851 81.3916 9.34587 81.4427 10.1268C81.4682 10.1332 81.4937 10.1332 81.5256 10.1396C81.749 9.64033 81.8064 9.05781 82.3233 8.68654C82.285 8.91698 82.2595 9.14103 82.2084 9.37148C82.0234 10.1972 81.7745 11.0166 81.6532 11.8552C81.5894 12.3161 81.7234 12.8026 81.7936 13.2763C81.8894 13.8972 81.9021 14.5629 82.151 15.1134C82.5786 16.0544 83.1657 16.9186 83.7081 17.8596C83.8677 17.7059 83.957 17.6099 84.0591 17.5203C84.2123 17.3859 84.2123 17.2579 84.1357 17.0722C83.8549 16.4193 83.5869 15.76 83.3316 15.1006C83.255 14.8958 83.2423 14.6717 83.204 14.4541C83.2423 14.4413 83.2742 14.4221 83.3125 14.4093C83.5294 14.819 83.7528 15.2222 84.0208 15.7215C83.9698 14.7101 83.7145 13.7884 83.9889 12.8602C84.359 13.4555 84.2314 14.1788 84.4867 14.8894C84.6335 14.3709 84.7611 13.9228 84.8887 13.4619C85.2078 13.5515 85.2078 13.75 85.1631 13.9548C85.0419 14.5565 84.9015 15.1582 84.7802 15.76C84.7292 16.0288 84.71 16.3041 84.6845 16.5793C84.6781 16.6433 84.7292 16.7073 84.7675 16.829C86.1778 15.4399 87.5562 14.0828 88.9346 12.7257C88.2263 11.932 87.9902 11.023 88.2199 10.0308C88.3093 9.65313 88.5071 9.25625 88.7687 8.9746C91.232 6.27966 93.7208 3.60392 96.2033 0.921786C96.2288 0.88978 96.2671 0.870575 96.299 0.84497C96.7266 1.08822 96.784 1.39548 96.4777 1.74755C94.6015 3.91118 92.7189 6.07482 90.8491 8.24485C90.7215 8.39208 90.5492 8.55211 90.7534 8.76975C90.9257 8.94899 91.2639 8.9874 91.4554 8.82097C91.7234 8.57772 91.9723 8.31527 92.2275 8.05921C94.0335 6.22205 95.8459 4.38488 97.6519 2.54771C97.7285 2.4709 97.7859 2.38128 97.8497 2.31086C98.3284 2.56691 98.3922 2.87418 98.0667 3.24545C96.2097 5.38348 94.3526 7.52791 92.502 9.66593C92.3488 9.83877 92.1063 10.018 92.3807 10.2805C92.5785 10.4725 92.9231 10.4405 93.1529 10.21C94.2122 9.13463 95.2652 8.04641 96.3373 6.9774C97.3966 5.92759 98.4687 4.89698 99.56 3.84077C99.911 4.02 99.9812 4.35287 99.6812 4.69854C97.8178 6.84297 95.9544 8.9938 94.091 11.1446C93.9506 11.3047 93.6889 11.4647 93.9378 11.7335C94.142 11.9576 94.4803 11.9448 94.7355 11.6951C95.5332 10.895 96.3245 10.0884 97.1158 9.28186C98.3603 8.0144 99.6047 6.74055 100.855 5.47309C100.932 5.39628 101.009 5.33227 101.155 5.19144C101.283 5.44749 101.392 5.66513 101.5 5.88918C100.753 6.69574 100.026 7.4895 99.2984 8.27686C97.5689 10.146 95.8204 11.996 94.1229 13.8908C93.0827 15.0558 91.4618 15.0814 90.4726 14.1084C90.4407 14.0764 90.4088 14.0572 90.3514 14.0124C90.2493 14.134 90.1408 14.2493 90.045 14.3709C89.1261 15.4655 88.2071 16.5601 87.2882 17.6419C87.1478 17.8084 87.1095 17.9492 87.1861 18.1604C87.3392 18.6021 87.4541 19.0566 87.5945 19.5047C87.62 19.5943 87.6711 19.6775 87.7413 19.7608C87.8434 19.031 87.569 18.2821 87.9136 17.4947C88.0029 17.802 88.105 18.0388 88.137 18.2821C88.2199 18.9798 88.2518 19.6775 88.3475 20.3753C88.4752 21.3035 88.6602 22.2252 89.2091 23.019C89.7004 23.736 90.1663 24.4785 90.6896 25.1762C90.9129 25.4771 91.232 25.7139 91.5256 25.9572C92.2148 26.5269 92.9104 27.0838 93.606 27.6471C93.6698 27.6983 93.74 27.7304 93.8357 27.788C93.1401 26.9558 92.4381 26.1748 91.8 25.3427C91.1618 24.5169 90.4471 23.7423 90.0068 22.7822C90.0387 22.7566 90.077 22.7246 90.1089 22.6989C90.5556 23.2303 91.0023 23.7552 91.5 24.3377C91.1427 23.4735 90.8172 22.6797 90.4918 21.8796C90.53 21.8604 90.5683 21.8476 90.6066 21.8284C91.1172 22.8078 91.532 23.8448 92.2467 24.7089C92.1318 23.96 92.017 23.2174 91.9021 22.4685C92.3424 22.7886 92.3679 23.2559 92.47 23.6847C92.5785 24.1584 92.6679 24.6385 92.7572 25.1186C92.8912 25.8228 93.1529 26.4565 93.6762 26.975C94.3718 27.6727 94.9908 28.4729 95.7502 29.0938C96.5287 29.7275 97.4222 30.2204 98.2901 30.7389C98.9665 31.1358 99.6812 31.4751 100.377 31.8336C100.441 31.8656 100.498 31.9104 100.524 32C100.09 31.8208 99.6302 31.6735 99.2154 31.4559C98.0859 30.8542 96.9818 30.1948 95.8459 29.5995C94.7674 29.0362 93.6826 28.4537 92.5466 28.0184C91.9212 27.7816 91.1873 27.8264 90.5045 27.7688C90.0068 27.7239 89.509 27.7303 89.0112 27.6855C88.8389 27.6727 88.673 27.5831 88.5071 27.4743C89.0559 27.1542 89.643 27.3399 90.2173 27.2374C89.4069 26.9878 88.6028 26.7381 87.7923 26.4885C87.7987 26.4501 87.8051 26.4181 87.8179 26.3797C88.1178 26.2068 88.4305 26.2901 88.7432 26.3605C89.0431 26.4245 89.3431 26.5077 89.6621 26.5141C88.9091 26.0532 88.1561 25.5859 87.4031 25.125C88.188 25.2018 88.8517 25.5667 89.5218 25.9124C90.3003 26.3221 91.0597 26.7766 91.8383 27.1926C92.1701 27.3655 92.5275 27.4935 92.8721 27.6407C92.8912 27.6151 92.904 27.5895 92.9231 27.5639C92.687 27.3655 92.4509 27.1734 92.2148 26.9686C90.6896 25.6371 88.9474 24.6449 87.1287 23.7936C86.6756 23.5823 86.1204 23.5823 85.6098 23.4735C85.1121 23.3711 84.6143 23.2751 84.1229 23.1534C83.9698 23.115 83.8294 23.0062 83.6315 22.9038C84.1229 22.6093 84.5696 22.8974 85.0929 22.8462C84.5505 22.5645 84.0783 22.3277 83.5869 22.078C83.0955 22.6605 82.6105 23.2366 82.1255 23.8128C80.0451 26.2965 77.9647 28.7738 75.8843 31.2575C75.3674 31.872 74.7101 32.0832 73.9379 31.8784C73.153 31.6671 72.7126 31.123 72.5531 30.3293C72.3872 29.5099 72.6105 28.8442 73.2168 28.2489C76.1587 25.3747 79.0815 22.4877 82.0106 19.6007C82.0553 19.4855 82.1383 19.3895 82.2531 19.2743ZM86.9053 18.0516C86.4969 18.5317 86.1267 18.9542 85.7758 19.3959C85.7183 19.4663 85.7183 19.6391 85.763 19.7287C86.2161 20.6505 86.8096 21.4763 87.5243 22.2124C87.7158 22.4109 87.8817 22.6349 88.0667 22.8334C88.2965 23.083 88.5454 23.3135 88.7879 23.5567C88.8262 23.5247 88.8645 23.4991 88.9027 23.4671C88.5709 22.8846 88.2391 22.2957 87.9008 21.7131C87.435 20.9066 86.9564 20.1 86.5033 19.2871C86.4203 19.1398 86.4267 18.935 86.3884 18.7558C86.4331 18.7365 86.4777 18.7173 86.5224 18.6981C86.8032 19.1526 87.0904 19.6071 87.3712 20.0552C87.3967 20.0424 87.4158 20.036 87.4414 20.0232C87.2754 19.3959 87.0968 18.7558 86.9053 18.0516ZM84.3016 21.1498C85.5333 22.5133 87.1031 23.2687 88.6858 24.0176C87.4031 22.859 86.3373 21.4571 84.7675 20.5865C84.6143 20.7786 84.4611 20.9642 84.3016 21.1498Z" fill="#417F56"/>
</svg>
