<svg width="155" height="51" viewBox="0 0 155 51" fill="none" xmlns="http://www.w3.org/2000/svg">
<path d="M1.85352 12.3986C1.85352 12.3177 1.90098 12.2773 1.99591 12.2773C2.11896 12.2773 2.31409 12.3564 2.58129 12.5146C5.06345 14.0475 8.28569 14.8139 12.248 14.8139C14.6739 14.8139 17.0383 14.3938 19.3412 13.5535C19.7455 13.4023 20.1639 13.1562 20.5963 12.8152C20.9549 12.4847 21.3188 12.1577 21.688 11.8343L21.7301 11.771C21.7301 11.662 21.5069 11.5759 21.0604 11.5126C20.8143 11.4599 20.5541 11.4229 20.2799 11.4018C20.1076 11.3737 19.9142 11.2841 19.6998 11.1329C19.4607 10.9887 19.3341 10.8305 19.3201 10.6583V10.2469C19.3201 9.56835 19.6242 8.82827 20.2324 8.02667C20.8406 7.22506 21.4612 6.76274 22.094 6.63968C22.4351 6.78383 22.6056 7.0106 22.6056 7.31999C22.6056 7.45711 22.5687 7.65224 22.4948 7.90537C22.4034 8.17609 22.2892 8.32375 22.152 8.34837C21.8708 8.06007 21.6862 7.91592 21.5983 7.91592C21.3698 7.91592 21.0182 8.18136 20.5436 8.71225C20.0724 9.23962 19.8369 9.6246 19.8369 9.8672C19.8369 9.94806 19.8492 9.99904 19.8738 10.0201C20.1305 10.1924 20.3678 10.2926 20.5857 10.3207C21.2959 10.4227 21.6704 10.4807 21.709 10.4948C22.1415 10.6249 22.3577 10.8991 22.3577 11.3175C22.3577 11.9855 22.0624 12.6447 21.4717 13.2951C20.9514 13.833 20.3467 14.2426 19.6576 14.5239C18.5747 14.9493 17.353 15.3062 15.9923 15.5944C14.5755 15.8968 13.3203 16.048 12.2269 16.048C9.28066 16.048 6.96199 15.7228 5.27088 15.0724C4.88766 14.9001 4.64858 14.7928 4.55366 14.7507C3.91378 14.3182 3.40399 13.9578 3.02428 13.6695C2.24377 13.0015 1.85352 12.5779 1.85352 12.3986Z" fill="white"/>
<path d="M23.4388 3.43326C23.5267 2.8637 23.6674 2.49982 23.8607 2.3416C23.8924 2.37676 23.9187 2.40137 23.9398 2.41544C24.0312 2.90413 24.1402 3.69519 24.2668 4.78861C24.3934 5.87851 24.4988 6.85942 24.5832 7.73134C24.6711 8.60326 24.7151 9.06383 24.7151 9.11305C24.7151 9.21501 24.6887 9.37674 24.636 9.59824C24.5867 9.81622 24.483 9.96388 24.3248 10.0412C24.2123 9.14821 24.0998 8.26047 23.9873 7.378C23.8783 6.49553 23.7588 5.62713 23.6287 4.77279C23.5021 3.91493 23.4388 3.46842 23.4388 3.43326Z" fill="white"/>
<path d="M28.2274 8.94957C28.2274 8.66127 28.3522 8.19719 28.6018 7.55731C28.876 6.93149 29.1116 6.50608 29.3085 6.28107C29.7761 6.52718 30.1101 6.74691 30.3105 6.94028C30.5847 7.22155 30.7218 7.58543 30.7218 8.03194C30.7218 8.85464 30.4406 9.44178 29.878 9.79336C29.8358 9.86368 29.7093 9.91817 29.4983 9.95685C29.2909 9.99201 29.1292 10.0096 29.0131 10.0096C28.7635 10.0096 28.5631 9.89356 28.4119 9.66152C28.2889 9.44706 28.2274 9.20974 28.2274 8.94957ZM28.8866 8.46439C28.8866 8.54525 28.934 8.62963 29.029 8.71753C29.1274 8.8019 29.2048 8.84409 29.261 8.84409H29.4245C29.769 8.84409 29.9923 8.77202 30.0943 8.62787C30.0943 8.3677 30.0046 8.13917 29.8253 7.94229C29.646 7.74189 29.4438 7.62059 29.2188 7.5784C28.9973 7.96163 28.8866 8.25695 28.8866 8.46439Z" fill="white"/>
<path d="M31.0119 13.216C31.0119 13.1457 31.2685 13.0385 31.7818 12.8943C32.5518 12.6412 33.0809 12.4285 33.3692 12.2562C33.9072 11.9398 34.2746 11.5759 34.4714 11.1645C34.5066 11.0626 34.5242 11.0046 34.5242 10.9905C34.5242 10.544 34.4837 10.1801 34.4029 9.89884C34.3607 9.7793 34.1954 9.43475 33.9072 8.86519C33.9529 8.29563 34.032 7.95284 34.1445 7.83682L34.3607 7.96866C34.5646 8.28508 34.6806 8.46087 34.7088 8.49603C34.8388 8.64018 35.0181 8.74565 35.2467 8.81245C35.5279 8.92496 35.709 8.96363 35.7899 8.92847V10.0201C35.5156 10.0342 35.2449 10.0026 34.9777 9.92521V10.4209C34.9777 11.0749 34.7896 11.6866 34.4134 12.2562C34.0407 12.8257 33.5591 13.2318 32.9684 13.4744C31.6641 13.5131 31.0119 13.427 31.0119 13.216Z" fill="white"/>
<path d="M35.5789 8.92847C35.7582 8.93551 36.0201 8.86343 36.3647 8.71225C36.7093 8.56107 36.9149 8.48548 36.9817 8.48548C37.1118 8.48548 37.3368 8.55931 37.6568 8.70698C37.9767 8.85464 38.2334 8.92847 38.4267 8.92847V10.0201C38.2052 10.0201 37.938 9.93927 37.6251 9.77754C37.3122 9.61581 37.0977 9.53495 36.9817 9.53495C36.929 9.53495 36.7479 9.61581 36.4385 9.77754C36.1291 9.93927 35.8742 10.0201 35.6738 10.0201H35.5789V8.92847ZM37.0661 11.8185C37.2313 11.3368 37.3825 11.0714 37.5196 11.0221C37.6427 11.0854 37.7763 11.1645 37.9204 11.2595C38.0716 11.3825 38.1753 11.4933 38.2316 11.5917C38.1226 12.1472 37.9679 12.4249 37.7675 12.4249C37.6937 12.4249 37.5601 12.3494 37.3667 12.1982C37.2155 12.04 37.1153 11.9134 37.0661 11.8185ZM35.8004 12.3037C35.8004 12.1384 35.9305 11.8694 36.1907 11.4968C36.588 11.771 36.8428 11.9644 36.9554 12.0769V12.1138C36.9554 12.2404 36.9202 12.3951 36.8499 12.5779C36.769 12.7713 36.6899 12.8679 36.6126 12.8679C36.5247 12.8679 36.3665 12.7941 36.1379 12.6464C35.9129 12.4988 35.8004 12.3845 35.8004 12.3037Z" fill="white"/>
<path d="M38.1894 8.92847C38.759 8.92847 39.369 8.8564 40.0194 8.71225C40.7225 8.53295 41.3044 8.31321 41.765 8.05304C40.8649 7.75068 40.3551 7.5995 40.2356 7.5995C40.0844 7.5995 39.8489 7.65224 39.5289 7.75771C39.2125 7.86318 38.9682 7.91592 38.7959 7.91592C38.9682 7.3112 39.0701 6.99654 39.1018 6.97193C39.1932 6.79965 39.4235 6.61683 39.7926 6.42346C39.9192 6.35314 40.095 6.31799 40.32 6.31799C40.4149 6.31799 40.8034 6.46565 41.4855 6.76098C42.2414 7.0985 42.6949 7.29186 42.8461 7.34109C43.6301 7.58016 44.3755 7.6997 45.0821 7.6997C45.1489 7.75595 45.1859 7.80166 45.1929 7.83682C45.1929 7.9669 45.1015 8.22355 44.9187 8.60678H44.7394C44.2612 8.60678 43.9008 8.56986 43.6582 8.49603L43.6266 8.64897L43.6582 8.83355C43.8024 8.9777 44.0151 9.04977 44.2964 9.04977C44.7183 9.04977 45.1138 9.00934 45.483 8.92847V10.0201L44.328 10.0412C44.0467 10.0483 43.8147 9.95685 43.6319 9.76699C43.4526 9.57714 43.3629 9.34158 43.3629 9.06032C43.3629 9.01461 43.3699 8.94781 43.384 8.85992C43.4016 8.7685 43.4104 8.69819 43.4104 8.64897V8.49603C43.0764 8.49603 42.6861 8.57162 42.2396 8.7228C41.6279 8.94781 41.1497 9.14294 40.8052 9.30818C40.1301 9.58241 39.7241 9.73711 39.5869 9.77227C39.1264 9.93751 38.701 10.0201 38.3107 10.0201H38.1894V8.92847ZM40.8737 11.8026C41.0319 11.2472 41.1972 10.9553 41.3695 10.9272C41.4784 10.9413 41.6226 10.9993 41.8019 11.1012C42.0269 11.2454 42.1394 11.3684 42.1394 11.4704C42.1394 11.5478 42.1025 11.6831 42.0287 11.8765C41.9584 12.0523 41.8828 12.1753 41.8019 12.2456H41.7492C41.612 12.2456 41.4468 12.1982 41.2534 12.1033C41.0003 12.0259 40.8737 11.9257 40.8737 11.8026Z" fill="white"/>
<path d="M45.0347 5.51111C45.1929 4.95561 45.3581 4.6638 45.5304 4.63567C45.6394 4.64973 45.7836 4.70774 45.9629 4.8097C46.1879 4.95385 46.3004 5.0769 46.3004 5.17886C46.3004 5.25621 46.2635 5.39157 46.1896 5.58494C46.1193 5.76073 46.0437 5.88378 45.9629 5.9541H45.9101C45.773 5.9541 45.6078 5.90664 45.4144 5.81171C45.1613 5.73436 45.0347 5.63416 45.0347 5.51111ZM45.3036 8.92847C45.7923 8.93551 46.0683 8.83179 46.1316 8.61732C46.1105 8.52943 46.0244 8.36419 45.8732 8.1216C45.7431 7.91768 45.6675 7.74716 45.6464 7.61005C45.7273 7.38152 45.824 7.12662 45.9365 6.84536H45.984C46.1422 6.84536 46.2933 7.07213 46.4375 7.52567C46.5887 7.92295 46.6643 8.23586 46.6643 8.46439C46.6643 8.96012 46.5852 9.33103 46.4269 9.57714C46.2371 9.87247 45.9119 10.0201 45.4513 10.0201H45.3036V8.92847Z" fill="white"/>
<path d="M46.3004 12.2245C47.2637 12.1648 47.8315 12.1138 48.0038 12.0716C48.5136 11.9134 49.0111 11.5987 49.4962 11.1276C49.9849 10.6565 50.3154 10.1608 50.4877 9.64043C50.3225 9.35213 50.1643 9.06911 50.0131 8.79136C49.767 8.32727 49.6439 8.02315 49.6439 7.879L49.6808 7.76298C49.6949 7.73486 49.7406 7.61883 49.8179 7.41492C49.8777 7.23561 49.9357 7.14596 49.992 7.14596C50.1572 7.14596 50.3523 7.38679 50.5774 7.86846C50.8059 8.28684 50.9202 8.6015 50.9202 8.81245C50.9202 10.2153 50.4947 11.3456 49.6439 12.2035C49.2431 12.5902 48.83 12.7836 48.4046 12.7836C48.1515 12.7836 47.5098 12.6939 46.4797 12.5146C46.4516 12.4935 46.3918 12.4285 46.3004 12.3195V12.2245ZM48.6419 6.00156C48.8001 5.44606 48.9654 5.15425 49.1376 5.12613C49.2466 5.14019 49.3908 5.1982 49.5701 5.30016C49.7951 5.44431 49.9076 5.56736 49.9076 5.66932C49.9076 5.74667 49.8707 5.88203 49.7968 6.07539C49.7265 6.25119 49.6509 6.37424 49.5701 6.44455H49.5173C49.3802 6.44455 49.215 6.39709 49.0216 6.30216C48.7685 6.22482 48.6419 6.12462 48.6419 6.00156Z" fill="white"/>
<path d="M38.9383 12.3986C38.9383 12.3177 38.9857 12.2773 39.0807 12.2773C39.2037 12.2773 39.3988 12.3564 39.666 12.5146C42.1482 14.0475 45.3704 14.8139 49.3328 14.8139C51.7587 14.8139 54.1231 14.3938 56.4259 13.5535C56.8302 13.4023 57.2486 13.1562 57.6811 12.8152C58.0397 12.4847 58.4035 12.1577 58.7727 11.8343L58.8149 11.771C58.8149 11.662 58.5916 11.5759 58.1451 11.5126C57.899 11.4599 57.6389 11.4229 57.3646 11.4018C57.1924 11.3737 56.999 11.2841 56.7845 11.1329C56.5454 10.9887 56.4189 10.8305 56.4048 10.6583V10.2469C56.4048 9.56835 56.7089 8.82827 57.3172 8.02667C57.9254 7.22506 58.5459 6.76274 59.1788 6.63968C59.5198 6.78383 59.6903 7.0106 59.6903 7.31999C59.6903 7.45711 59.6534 7.65224 59.5796 7.90537C59.4882 8.17609 59.3739 8.32375 59.2368 8.34837C58.9555 8.06007 58.771 7.91592 58.6831 7.91592C58.4545 7.91592 58.103 8.18136 57.6283 8.71225C57.1572 9.23962 56.9216 9.6246 56.9216 9.8672C56.9216 9.94806 56.9339 9.99904 56.9586 10.0201C57.2152 10.1924 57.4525 10.2926 57.6705 10.3207C58.3807 10.4227 58.7551 10.4807 58.7938 10.4948C59.2262 10.6249 59.4425 10.8991 59.4425 11.3175C59.4425 11.9855 59.1471 12.6447 58.5565 13.2951C58.0361 13.833 57.4314 14.2426 56.7423 14.5239C55.6595 14.9493 54.4377 15.3062 53.0771 15.5944C51.6602 15.8968 50.4051 16.048 49.3117 16.048C46.3654 16.048 44.0467 15.7228 42.3556 15.0724C41.9724 14.9001 41.7333 14.7928 41.6384 14.7507C40.9985 14.3182 40.4887 13.9578 40.109 13.6695C39.3285 13.0015 38.9383 12.5779 38.9383 12.3986Z" fill="white"/>
<path d="M60.2863 3.35416C60.3882 2.78108 60.4603 2.42247 60.5025 2.27832C60.5974 2.3627 60.6625 2.51388 60.6976 2.73186C60.7433 2.8303 60.7767 2.98851 60.7978 3.20649C61.1564 5.8328 61.3393 7.20397 61.3463 7.31999C61.4482 8.00557 61.5273 8.39407 61.5836 8.48548C61.7418 8.78081 62.0442 8.92847 62.4907 8.92847V10.0201C61.8578 10.0201 61.4729 9.89708 61.3357 9.65097C61.2267 9.49979 61.116 9.15524 61.0035 8.61732C60.9718 8.37825 60.9209 8.00733 60.8506 7.50457C60.5974 5.37399 60.4093 3.99052 60.2863 3.35416Z" fill="white"/>
<path d="M62.285 8.92847C62.5698 8.92847 62.8897 8.88277 63.2448 8.79136C63.6702 8.6894 63.9691 8.57338 64.1413 8.44329C63.955 8.03897 63.8618 7.8122 63.8618 7.76298C63.8618 7.60477 63.9339 7.41316 64.0781 7.18815C64.2292 6.92446 64.3189 6.74164 64.347 6.63968C64.2451 6.5764 64.1941 6.46389 64.1941 6.30216C64.1941 6.13692 64.2451 5.95058 64.347 5.74315C64.4455 5.49704 64.5632 5.37399 64.7004 5.37399C65.1328 5.37399 65.6338 5.70623 66.2034 6.37072C66.6569 6.88755 66.8942 7.16002 66.9153 7.18815C67.2106 7.58543 67.3583 7.92471 67.3583 8.20598C67.3583 8.33606 67.2247 8.61732 66.9575 9.04977C66.8802 9.14821 66.7395 9.19743 66.5356 9.19743C65.8465 9.19743 65.3297 9.1113 64.9851 8.93902C64.5738 9.16403 64.166 9.38729 63.7616 9.60878C63.1851 9.88302 62.7245 10.0201 62.3799 10.0201H62.285V8.92847ZM65.502 8.23762C66.1418 8.40286 66.5268 8.48548 66.6569 8.48548C66.7518 8.48548 66.7993 8.45032 66.7993 8.38001C66.7993 8.23586 66.6358 7.99854 66.3088 7.66806C66.0733 7.41492 65.8395 7.21276 65.6074 7.06158C65.6672 7.44832 65.6321 7.84033 65.502 8.23762ZM64.1941 7.78408C64.1941 7.86494 64.2082 7.90889 64.2363 7.91592C64.4543 8.03546 64.674 8.08116 64.8955 8.05304C65.1346 7.89483 65.2541 7.72958 65.2541 7.55731C65.2541 7.41316 65.2172 7.27604 65.1434 7.14596C65.066 7.0229 64.9658 6.96138 64.8428 6.96138C64.7338 6.96138 64.5984 7.07037 64.4367 7.28835C64.275 7.50281 64.1941 7.66806 64.1941 7.78408Z" fill="white"/>
<path d="M53.5623 12.2035C53.5623 12.1507 53.6027 12.1243 53.6836 12.1243C53.7855 12.1243 54.0053 12.2158 54.3428 12.3986C56.2062 13.3408 57.8041 13.9737 59.1366 14.2971C60.6203 14.6417 62.3131 14.8139 64.2152 14.8139C67.1368 14.8139 69.4467 14.5432 71.1448 14.0018C72.8465 13.4639 74.1368 12.446 75.0157 10.9483C75.0157 10.4807 74.8681 9.96212 74.5728 9.39256C74.2774 8.823 74.1298 8.50658 74.1298 8.44329C74.1298 8.30618 74.2229 8.0003 74.4093 7.52567C74.3952 7.36746 74.4268 7.28835 74.5042 7.28835C74.6483 7.28835 74.8681 7.67333 75.1634 8.44329C75.4658 9.1781 75.617 9.67207 75.617 9.92521C75.74 10.9026 75.3181 11.938 74.3513 13.0314C73.3879 14.1284 71.8445 14.9388 69.7209 15.4626C67.8646 15.8247 66.068 16.0058 64.3312 16.0058C62.9495 16.0058 61.6399 15.9372 60.4023 15.8001C58.7393 15.5751 57.493 15.2464 56.6632 14.8139C56.1745 14.5713 55.6348 14.2075 55.0442 13.7223C54.777 13.4797 54.5028 13.2494 54.2215 13.0314C53.782 12.6377 53.5623 12.3617 53.5623 12.2035ZM72.247 4.82025C72.247 4.74993 72.3244 4.60227 72.4791 4.37726C72.6338 4.14873 72.7322 4.03447 72.7744 4.03447C72.8342 4.03447 72.9819 4.09599 73.2174 4.21905C73.4706 4.3632 73.5971 4.48097 73.5971 4.57239C73.5971 4.63919 73.525 4.77982 73.3809 4.99428C73.2508 5.24039 73.1383 5.36344 73.0434 5.36344C72.959 5.36344 72.8043 5.29313 72.5793 5.15249C72.3578 5.01186 72.247 4.90111 72.247 4.82025Z" fill="white"/>
<path d="M76.4291 3.43326C76.517 2.8637 76.6576 2.49982 76.851 2.3416C76.8826 2.37676 76.909 2.40137 76.9301 2.41544C77.0215 2.90413 77.1305 3.69519 77.2571 4.78861C77.3837 5.87851 77.4891 6.85942 77.5735 7.73134C77.6614 8.60326 77.7053 9.06383 77.7053 9.11305C77.7053 9.21501 77.679 9.37674 77.6262 9.59824C77.577 9.81622 77.4733 9.96388 77.3151 10.0412C77.2026 9.14821 77.0901 8.26047 76.9776 7.378C76.8686 6.49553 76.749 5.62713 76.619 4.77279C76.4924 3.91493 76.4291 3.46842 76.4291 3.43326Z" fill="white"/>
<path d="M77.3836 12.2245C78.347 12.1648 78.9148 12.1138 79.0871 12.0716C79.5968 11.9134 80.0943 11.5987 80.5795 11.1276C81.0682 10.6565 81.3987 10.1608 81.571 9.64043C81.4057 9.35213 81.2475 9.06911 81.0963 8.79136C80.8502 8.32727 80.7272 8.02315 80.7272 7.879L80.7641 7.76298C80.7782 7.73486 80.8239 7.61883 80.9012 7.41492C80.961 7.23561 81.019 7.14596 81.0752 7.14596C81.2405 7.14596 81.4356 7.38679 81.6606 7.86846C81.8892 8.28684 82.0034 8.6015 82.0034 8.81245C82.0034 10.2153 81.578 11.3456 80.7272 12.2035C80.3264 12.5902 79.9133 12.7836 79.4879 12.7836C79.2347 12.7836 78.5931 12.6939 77.563 12.5146C77.5348 12.4935 77.4751 12.4285 77.3836 12.3195V12.2245Z" fill="white"/>
<path d="M81.9771 12.1349C82.0052 12.1138 82.0579 12.1033 82.1353 12.1033H82.6679C83.4168 12.1033 83.9248 12.0681 84.192 11.9978C84.5436 11.8818 84.9743 11.6075 85.4841 11.1751C86.0185 10.7356 86.3472 10.3506 86.4703 10.0201C85.8726 10.0201 85.4753 9.9797 85.2784 9.89884C84.9198 9.7793 84.7405 9.47342 84.7405 8.98121C84.7405 8.67182 84.8565 8.32375 85.0885 7.93702C85.3382 7.50457 85.5895 7.28835 85.8427 7.28835C86.029 7.28835 86.2417 7.51512 86.4808 7.96866C86.7023 8.32024 86.85 8.64018 86.9238 8.92847H87.2033V10.0201H86.813C86.7638 10.5088 86.4878 11.0555 85.9851 11.6603C85.4718 12.2298 84.9778 12.6007 84.5032 12.773C84.0777 12.7027 83.5908 12.6166 83.0423 12.5146C82.3322 12.3564 81.9771 12.2298 81.9771 12.1349ZM85.3048 8.7228C85.47 8.85992 85.6563 8.92847 85.8638 8.92847C85.8989 8.92847 85.9429 8.92144 85.9956 8.90738C85.9956 8.79839 85.9693 8.69116 85.9165 8.58568C85.8392 8.44153 85.753 8.36946 85.6581 8.36946C85.4858 8.36946 85.368 8.48724 85.3048 8.7228Z" fill="white"/>
<path d="M87.0187 8.92847C87.198 8.93551 87.46 8.86343 87.8045 8.71225C88.1491 8.56107 88.3547 8.48548 88.4215 8.48548C88.5516 8.48548 88.7766 8.55931 89.0966 8.70698C89.4165 8.85464 89.6732 8.92847 89.8665 8.92847V10.0201C89.645 10.0201 89.3778 9.93927 89.0649 9.77754C88.752 9.61581 88.5376 9.53495 88.4215 9.53495C88.3688 9.53495 88.1877 9.61581 87.8783 9.77754C87.5689 9.93927 87.314 10.0201 87.1136 10.0201H87.0187V8.92847ZM88.2844 5.90664C88.4497 5.42497 88.6008 5.15953 88.738 5.1103C88.861 5.17359 88.9946 5.2527 89.1388 5.34762C89.2899 5.47068 89.3937 5.58142 89.4499 5.67987C89.3409 6.23536 89.1862 6.51311 88.9858 6.51311C88.912 6.51311 88.7784 6.43752 88.585 6.28634C88.4338 6.12813 88.3336 6.00156 88.2844 5.90664ZM87.0187 6.39182C87.0187 6.22657 87.1488 5.95762 87.409 5.58494C87.8063 5.85917 88.0612 6.05254 88.1737 6.16505V6.20196C88.1737 6.32853 88.1385 6.48323 88.0682 6.66605C87.9873 6.85942 87.9082 6.9561 87.8309 6.9561C87.743 6.9561 87.5848 6.88227 87.3562 6.73461C87.1312 6.58695 87.0187 6.47268 87.0187 6.39182Z" fill="white"/>
<path d="M89.6292 8.92847C90.1285 8.92847 90.6049 8.87046 91.0584 8.75444C91.7334 8.59623 92.1254 8.36946 92.2344 8.07413C92.3434 7.7788 92.4436 7.59598 92.535 7.52567C92.5667 7.54676 92.5825 7.59422 92.5825 7.66806C92.5825 7.89658 92.5174 8.20246 92.3874 8.58568C92.4858 8.62084 92.5719 8.63842 92.6458 8.63842C93.3806 8.63842 93.8921 8.52943 94.1804 8.31145C94.3597 8.1673 94.4968 7.92998 94.5918 7.5995C94.6832 7.28308 94.8256 7.08619 95.0189 7.00884L95.0453 7.05103C95.0594 7.07213 95.0664 7.09674 95.0664 7.12486C95.0664 7.23385 95.0189 7.49754 94.924 7.91592C95.026 8.07413 95.1297 8.17082 95.2352 8.20598C95.2668 8.21301 95.4215 8.24817 95.6993 8.31145L95.9735 8.20598C95.9735 8.13214 95.9577 8.05304 95.926 7.96866C95.8979 7.88076 95.8838 7.81924 95.8838 7.78408C95.8838 7.74189 95.9313 7.57664 96.0262 7.28835C96.1493 6.95786 96.2108 6.78207 96.2108 6.76098C96.2882 6.76098 96.3673 6.88227 96.4481 7.12486C96.5184 7.31823 96.5536 7.47644 96.5536 7.5995C96.5536 8.02491 96.478 8.40989 96.3268 8.75444C96.1264 9.20798 95.8381 9.43475 95.4619 9.43475C95.2756 9.43475 94.9592 9.29939 94.5127 9.02867C94.4037 9.29236 94.1488 9.49628 93.748 9.64043C93.4386 9.74238 93.1099 9.79336 92.7618 9.79336C92.4172 9.79336 92.0973 9.74238 91.802 9.64043C91.1199 9.89356 90.4836 10.0201 89.8929 10.0201H89.6292V8.92847Z" fill="white"/>
<path d="M96.3796 12.2245C97.3429 12.1648 97.9107 12.1138 98.083 12.0716C98.5928 11.9134 99.0902 11.5987 99.5754 11.1276C100.064 10.6565 100.395 10.1608 100.567 9.64043C100.402 9.35213 100.243 9.06911 100.092 8.79136C99.8462 8.32727 99.7231 8.02315 99.7231 7.879L99.76 7.76298C99.7741 7.73486 99.8198 7.61883 99.8971 7.41492C99.9569 7.23561 100.015 7.14596 100.071 7.14596C100.236 7.14596 100.432 7.38679 100.657 7.86846C100.885 8.28684 100.999 8.6015 100.999 8.81245C100.999 10.2153 100.574 11.3456 99.7231 12.2035C99.3223 12.5902 98.9092 12.7836 98.4838 12.7836C98.2306 12.7836 97.589 12.6939 96.5589 12.5146C96.5307 12.4935 96.471 12.4285 96.3796 12.3195V12.2245Z" fill="white"/>
<path d="M22.2926 39.0524H20.538C18.2917 39.0524 16.3312 38.3612 14.6564 36.9788C13.088 35.6895 11.9715 33.9616 11.3069 31.795C11.0144 30.838 10.3698 30.3595 9.3729 30.3595C8.78806 30.3595 8.28962 30.5589 7.87757 30.9576C7.47881 31.3431 7.27944 31.8216 7.27944 32.3931C7.27944 32.9647 7.47881 33.4565 7.87757 33.8685C8.28962 34.2673 8.78806 34.4667 9.3729 34.4667H12.5829V39.0524H9.59221C7.73136 39.0524 6.12305 38.421 4.76728 37.1583C3.4248 35.8955 2.75357 34.3072 2.75357 32.3931C2.75357 30.5722 3.39822 29.017 4.68753 27.7277C5.97684 26.4384 7.53863 25.7937 9.3729 25.7937C10.7951 25.7937 12.0977 26.2324 13.2807 27.1096C14.4637 27.9736 15.2745 29.0901 15.7131 30.4592C16.5372 33.1308 18.1455 34.4667 20.538 34.4667H22.2926V39.0524Z" fill="white"/>
<path d="M30.9854 22.1053H28.7125C28.0878 22.1053 27.5495 21.886 27.0976 21.4473C26.6456 20.9954 26.4197 20.4571 26.4197 19.8324C26.4197 19.2076 26.6456 18.6693 27.0976 18.2174C27.5495 17.7655 28.0878 17.5395 28.7125 17.5395C29.3372 17.5395 29.8689 17.7655 30.3075 18.2174C30.7595 18.6693 30.9854 19.2076 30.9854 19.8324V22.1053ZM38.8409 39.0524H37.0664C35.2189 39.0524 33.5175 38.4875 31.9624 37.3576V39.0524H20.538V34.4667H27.3966V25.9333H31.9624V28.7844C31.9624 30.4193 32.4342 31.7751 33.378 32.8517C34.3217 33.9284 35.5512 34.4667 37.0664 34.4667H38.8409V39.0524Z" fill="white"/>
<path d="M55.2297 39.0524H53.4553C51.6077 39.0524 49.9063 38.4875 48.3512 37.3576V39.0524H36.9269V34.4667H43.7855V25.9333H48.3512V28.7844C48.3512 30.4193 48.8231 31.7751 49.7668 32.8517C50.7105 33.9284 51.94 34.4667 53.4553 34.4667H55.2297V39.0524ZM51.4814 47.167H49.1687C48.5439 47.167 48.0056 46.9411 47.5537 46.4891C47.1151 46.0372 46.8957 45.4989 46.8957 44.8742C46.8957 44.2362 47.1151 43.6978 47.5537 43.2592C48.0056 42.8206 48.5439 42.6013 49.1687 42.6013C49.8067 42.6013 50.3516 42.8206 50.8036 43.2592C51.2555 43.6978 51.4814 44.2362 51.4814 44.8742V47.167ZM46.2976 47.167H44.0048C43.3668 47.167 42.8218 46.9411 42.3699 46.4891C41.9313 46.0372 41.7119 45.4989 41.7119 44.8742C41.7119 44.2362 41.9313 43.6978 42.3699 43.2592C42.8218 42.8206 43.3668 42.6013 44.0048 42.6013C44.6295 42.6013 45.1678 42.8206 45.6197 43.2592C46.0717 43.6978 46.2976 44.2362 46.2976 44.8742V47.167Z" fill="white"/>
<path d="M75.965 39.0524H53.3157V34.4667H71.1401C70.7546 33.297 70.0634 32.34 69.0665 31.5956C68.0829 30.8513 66.9531 30.4791 65.6771 30.4791L58.8783 30.4991V25.9333H65.6771C68.5083 25.9333 70.9274 26.9368 72.9344 28.9439C74.9548 30.9377 75.965 33.3568 75.965 36.2013V39.0524ZM64.2815 23.5807H62.0086C61.3838 23.5807 60.8455 23.3613 60.3936 22.9227C59.9417 22.4708 59.7157 21.9325 59.7157 21.3078C59.7157 20.683 59.9417 20.1447 60.3936 19.6928C60.8455 19.2409 61.3838 19.0149 62.0086 19.0149C62.6333 19.0149 63.165 19.2409 63.6036 19.6928C64.0555 20.1447 64.2815 20.683 64.2815 21.3078V23.5807Z" fill="white"/>
<path d="M90.409 39.0524H88.6345C86.8002 39.0524 85.0989 38.4875 83.5305 37.3576V38.4542C83.5305 41.3253 82.4937 43.751 80.4202 45.7315C78.3599 47.7253 75.7813 48.7222 72.6843 48.7222V44.1564C74.5319 44.1564 76.0405 43.6048 77.2102 42.5016C78.3932 41.3984 78.9846 40.0492 78.9846 38.4542V25.9333H83.5305V28.7844C83.5305 30.4193 84.0023 31.7751 84.946 32.8517C85.903 33.9284 87.1325 34.4667 88.6345 34.4667H90.409V39.0524Z" fill="white"/>
<path d="M100.059 39.0524H88.6345V34.4667H95.4931V25.9333H100.059V39.0524ZM100.258 21.7863H97.9454C97.3207 21.7863 96.7824 21.5603 96.3305 21.1084C95.8919 20.6565 95.6725 20.1181 95.6725 19.4934C95.6725 18.8554 95.8919 18.3171 96.3305 17.8785C96.7824 17.4398 97.3207 17.2205 97.9454 17.2205C98.5835 17.2205 99.1284 17.4398 99.5803 17.8785C100.032 18.3171 100.258 18.8554 100.258 19.4934V21.7863ZM95.0744 21.7863H92.7816C92.1436 21.7863 91.5986 21.5603 91.1467 21.1084C90.708 20.6565 90.4887 20.1181 90.4887 19.4934C90.4887 18.8554 90.708 18.3171 91.1467 17.8785C91.5986 17.4398 92.1436 17.2205 92.7816 17.2205C93.4063 17.2205 93.9446 17.4398 94.3965 17.8785C94.8484 18.3171 95.0744 18.8554 95.0744 19.4934V21.7863Z" fill="white"/>
<path d="M124.47 30.7183C123.124 30.147 121.778 29.7288 120.553 28.78C121.656 28.7187 122.497 29.239 123.428 29.4533C122.102 28.3617 120.685 27.3925 119.652 25.9744C120.745 26.6987 121.839 27.4129 122.932 28.1372C122.962 28.1066 122.993 28.0862 123.013 28.0556C122.274 27.2803 121.545 26.5151 120.806 25.7397C120.836 25.6887 120.867 25.6377 120.897 25.5867C121.201 25.7499 121.555 25.852 121.798 26.0866C122.78 27.015 123.721 27.9842 124.673 28.9432C124.926 29.1982 125.149 29.4635 125.432 29.7696C125.635 29.5757 125.786 29.4125 125.948 29.2799C126.232 29.0656 126.181 28.8616 126.009 28.5963C124.744 26.6783 123.063 25.1888 121.11 24.0564C119.612 23.1892 117.992 22.5363 116.433 21.7814C115.765 21.4549 115.107 21.108 114.439 20.7714C114.469 20.6897 114.49 20.6081 114.52 20.5265C115.016 20.6285 115.522 20.7203 116.13 20.8428C115.168 20.0164 114.085 19.4757 113.477 18.4249C113.508 18.3841 113.528 18.3331 113.558 18.2923C114.773 19.0472 115.978 19.8022 117.324 20.6387C116.423 19.4043 115.613 18.3025 114.814 17.2006C114.854 17.1598 114.895 17.119 114.945 17.0782C115.36 17.4863 115.795 17.8638 116.18 18.2923C117.213 19.4553 118.184 20.6795 119.257 21.7916C119.753 22.3017 120.432 22.6281 121.019 23.0464C121.818 23.6075 122.608 24.1788 123.478 24.8012C123.418 24.6175 123.397 24.4951 123.337 24.4033C121.667 21.5671 119.834 18.833 117.506 16.4865C117.101 16.0784 116.555 15.7826 116.028 15.5377C115.127 15.1296 114.176 14.8236 113.255 14.4665C112.698 14.2523 112.151 14.0074 111.767 13.5177C111.787 13.4565 111.807 13.4055 111.827 13.3443C112.627 13.5483 113.437 13.7626 114.237 13.9666C112.668 12.5383 110.957 11.2529 109.904 9.33487C111.331 10.5183 112.759 11.7017 114.176 12.8954C114.216 12.8648 114.257 12.824 114.287 12.7934C113.518 11.6915 112.749 10.5795 111.989 9.4777C112.04 9.42669 112.091 9.37568 112.141 9.32467C112.384 9.52871 112.668 9.70214 112.86 9.94699C113.69 11.0284 114.449 12.1812 115.33 13.232C116.079 14.1196 116.97 14.895 117.749 15.752C118.468 16.5375 119.126 17.3741 119.804 18.1902C119.905 18.3127 120.017 18.4453 120.118 18.5677C120.158 18.5473 120.199 18.5269 120.249 18.4963C120.118 18.1902 119.986 17.874 119.844 17.5781C119.176 16.1804 118.589 14.7215 117.8 13.3953C116.727 11.5997 115.411 9.9776 113.72 8.71255C113.285 8.38608 112.728 8.24325 112.212 8.02901C111.443 7.70254 110.613 7.4883 109.985 6.77416C110.896 6.55992 111.625 7.17204 112.587 7.32507C111.746 6.40688 110.512 6.07022 110.107 4.92759C110.147 4.86637 110.177 4.81536 110.218 4.75415C110.613 4.9786 111.018 5.21324 111.483 5.4785C111.119 4.82557 110.785 4.23385 110.461 3.63193C110.491 3.60132 110.522 3.57072 110.552 3.54011C110.765 3.71354 111.008 3.85637 111.169 4.06041C112.212 5.37648 113.214 6.72315 114.267 8.0188C115.188 9.15123 116.16 10.2531 117.182 11.3243C116.818 10.4775 116.484 9.62053 116.079 8.79416C115.573 7.74335 115.198 6.62113 114.348 5.77436C113.194 4.63173 112.06 3.4789 110.927 2.31586C110.603 1.9792 110.329 1.60172 110.096 1.17323C111.463 1.82617 112.394 3.0096 113.488 3.9992C113.528 3.9686 113.569 3.94819 113.609 3.91759C112.992 2.64233 112.374 1.37728 111.746 0.10202C111.797 0.0714143 111.858 0.0306061 111.908 0C112.89 1.46909 113.882 2.93819 114.864 4.40728C114.895 4.39708 114.935 4.38688 114.965 4.37668C114.773 3.32587 114.581 2.28526 114.399 1.23445C114.459 1.21404 114.52 1.19364 114.581 1.18344C114.662 1.39768 114.763 1.60172 114.803 1.82617C114.996 2.77496 115.107 3.74415 115.38 4.66233C115.735 5.82537 116.21 6.94759 116.666 8.06981C116.919 8.70234 117.243 9.31447 117.618 9.92659C117.658 7.9984 117.081 6.10082 117.304 4.17264C117.364 4.16244 117.415 4.15223 117.476 4.13183C117.648 4.59092 117.81 5.05001 117.982 5.5091C118.012 5.5091 118.043 5.5091 118.073 5.5091C118.225 4.67253 118.377 3.82577 118.549 2.90758C119.035 3.25445 119.004 3.64213 118.964 3.9992C118.792 5.4785 118.599 6.95779 118.417 8.42689C118.397 8.56971 118.417 8.71255 118.468 8.86558C119.025 7.93719 119.237 6.83537 119.986 6.03961C120.037 6.04981 120.087 6.07021 120.128 6.08042C120.118 6.23345 120.138 6.39668 120.087 6.52931C119.834 7.30466 119.581 8.06981 119.298 8.83497C118.832 10.0796 118.579 11.3549 118.802 12.6709C118.923 13.3749 119.247 14.0482 119.541 14.7113C120.28 16.4049 121.039 18.0882 121.818 19.7614C122.173 20.5265 122.578 21.2611 122.962 22.016C123.023 22.0058 123.074 21.9854 123.134 21.9752C123.063 21.5671 123.023 21.1488 122.932 20.7407C122.699 19.7614 122.436 18.782 122.193 17.8026C121.96 16.8844 121.707 15.9764 121.515 15.048C121.403 14.4971 121.383 13.9258 121.322 13.3647C121.393 13.3443 121.454 13.3341 121.525 13.3137C121.778 13.9156 122.041 14.5277 122.345 15.2623C122.517 14.2216 122.669 13.3035 122.82 12.3853C122.871 12.3853 122.922 12.3955 122.962 12.3955C123.033 13.6401 123.104 14.895 123.185 16.1396C123.225 16.1498 123.266 16.1498 123.316 16.16C123.671 15.3643 123.762 14.4359 124.582 13.8442C124.521 14.2114 124.481 14.5685 124.4 14.9358C124.106 16.2519 123.711 17.5577 123.519 18.8942C123.418 19.6287 123.63 20.4041 123.742 21.159C123.893 22.1486 123.914 23.2096 124.309 24.087C124.987 25.5867 125.918 26.964 126.778 28.4637C127.031 28.2188 127.173 28.0658 127.335 27.923C127.578 27.7087 127.578 27.5047 127.457 27.2088C127.011 26.1682 126.586 25.1174 126.181 24.0666C126.06 23.7402 126.039 23.3831 125.979 23.0362C126.039 23.0158 126.09 22.9852 126.151 22.9648C126.495 23.6177 126.849 24.2605 127.274 25.0562C127.193 23.4443 126.789 21.9752 127.224 20.4959C127.811 21.4447 127.608 22.5975 128.013 23.73C128.246 22.9036 128.449 22.1894 128.651 21.4549C129.157 21.5977 129.157 21.914 129.086 22.2404C128.894 23.1994 128.671 24.1584 128.479 25.1174C128.398 25.5459 128.368 25.9846 128.327 26.4233C128.317 26.5253 128.398 26.6273 128.459 26.8212C130.696 24.6073 132.882 22.4445 135.069 20.2817C133.945 19.0166 133.571 17.5679 133.935 15.9866C134.077 15.3847 134.391 14.7522 134.806 14.3033C138.713 10.0082 142.661 5.74375 146.598 1.4691C146.639 1.41809 146.7 1.38748 146.75 1.34667C147.428 1.73435 147.519 2.22405 147.034 2.78516C144.058 6.23345 141.071 9.68174 138.106 13.1402C137.903 13.3749 137.63 13.6299 137.954 13.9768C138.227 14.2625 138.763 14.3237 139.067 14.0584C139.492 13.6707 139.887 13.2525 140.292 12.8444C143.157 9.91639 146.031 6.9884 148.896 4.06041C149.018 3.93799 149.109 3.79516 149.21 3.68294C149.969 4.09102 150.07 4.58072 149.554 5.17244C146.608 8.57992 143.663 11.9976 140.727 15.4051C140.484 15.6805 140.1 15.9662 140.535 16.3845C140.849 16.6905 141.395 16.6395 141.76 16.2723C143.44 14.5583 145.11 12.824 146.811 11.1202C148.491 9.44709 150.192 7.80456 151.923 6.12122C152.479 6.40688 152.591 6.93739 152.115 7.4883C149.159 10.906 146.204 14.3339 143.248 17.7618C143.025 18.0168 142.61 18.2719 143.005 18.7003C143.329 19.0574 143.865 19.037 144.27 18.6391C145.535 17.3639 146.791 16.0784 148.046 14.793C150.02 12.773 151.994 10.7427 153.978 8.72274C154.099 8.60032 154.221 8.4983 154.453 8.27386C154.656 8.68194 154.828 9.02881 155 9.38588C153.816 10.6713 152.662 11.9364 151.508 13.1912C148.765 16.1702 145.991 19.1186 143.298 22.1384C141.648 23.9952 139.077 24.036 137.508 22.4853C137.458 22.4343 137.407 22.4037 137.316 22.3323C137.154 22.5261 136.982 22.7097 136.83 22.9036C135.372 24.6481 133.915 26.3927 132.457 28.1168C132.234 28.3821 132.174 28.6065 132.295 28.9432C132.538 29.6471 132.72 30.3715 132.943 31.0856C132.984 31.2284 133.064 31.3611 133.176 31.4937C133.338 30.3307 132.903 29.137 133.449 27.8822C133.591 28.3719 133.753 28.7494 133.803 29.137C133.935 30.2491 133.986 31.3611 134.137 32.4731C134.34 33.9524 134.633 35.4215 135.504 36.6865C136.283 37.8292 137.022 39.0126 137.852 40.1246C138.207 40.6041 138.713 40.9816 139.178 41.3693C140.272 42.2773 141.375 43.1648 142.478 44.0626C142.58 44.1442 142.691 44.1952 142.843 44.2871C141.739 42.9608 140.626 41.7161 139.614 40.3899C138.602 39.0738 137.468 37.8394 136.769 36.3091C136.82 36.2683 136.881 36.2172 136.931 36.1764C137.64 37.0232 138.348 37.8598 139.138 38.7882C138.571 37.4109 138.055 36.1458 137.539 34.8706C137.599 34.84 137.66 34.8196 137.721 34.789C138.531 36.3499 139.189 38.0026 140.322 39.3799C140.14 38.1862 139.958 37.0028 139.776 35.8092C140.474 36.3193 140.515 37.064 140.677 37.7476C140.849 38.5025 140.99 39.2677 141.132 40.0328C141.345 41.155 141.76 42.165 142.59 42.9914C143.693 44.1034 144.675 45.3787 145.88 46.3683C147.115 47.3783 148.532 48.1638 149.908 48.9902C150.981 49.6227 152.115 50.1634 153.218 50.7347C153.32 50.7858 153.411 50.8572 153.451 51C152.763 50.7143 152.034 50.4797 151.376 50.1328C149.584 49.1738 147.833 48.123 146.031 47.1742C144.321 46.2765 142.6 45.3481 140.798 44.6543C139.806 44.2769 138.642 44.3483 137.559 44.2565C136.769 44.185 135.98 44.1952 135.19 44.1238C134.917 44.1034 134.654 43.9606 134.391 43.7872C135.261 43.2771 136.192 43.5729 137.103 43.4097C135.818 43.0118 134.542 42.6139 133.257 42.216C133.267 42.1548 133.277 42.1038 133.297 42.0426C133.773 41.7672 134.269 41.8998 134.765 42.012C135.241 42.114 135.717 42.2467 136.223 42.2569C135.028 41.5223 133.834 40.7776 132.639 40.043C133.884 40.1654 134.937 40.7469 136 41.2979C137.235 41.9508 138.44 42.6751 139.675 43.3383C140.201 43.6137 140.768 43.8178 141.314 44.0524C141.345 44.0116 141.365 43.9708 141.395 43.93C141.021 43.6137 140.646 43.3077 140.272 42.9812C137.852 40.8592 135.089 39.2779 132.204 37.921C131.485 37.5843 130.605 37.5843 129.795 37.4109C129.005 37.2477 128.216 37.0946 127.436 36.9008C127.193 36.8396 126.971 36.6661 126.657 36.5029C127.436 36.0336 128.145 36.4927 128.975 36.4111C128.115 35.9622 127.366 35.5847 126.586 35.1868C125.807 36.1152 125.037 37.0334 124.268 37.9516C120.968 41.91 117.668 45.8582 114.368 49.8166C113.548 50.796 112.506 51.1326 111.281 50.8062C110.036 50.4695 109.337 49.6023 109.084 48.3373C108.821 47.0314 109.175 45.9704 110.137 45.0216C114.803 40.4409 119.44 35.8398 124.086 31.2386C124.157 31.055 124.288 30.902 124.47 30.7183ZM131.85 28.7698C131.202 29.5349 130.615 30.2082 130.058 30.9122C129.967 31.0244 129.967 31.2999 130.038 31.4427C130.757 32.9118 131.698 34.2278 132.832 35.4011C133.135 35.7173 133.399 36.0744 133.692 36.3907C134.056 36.7886 134.451 37.1558 134.836 37.5435C134.897 37.4925 134.957 37.4517 135.018 37.4007C134.492 36.4723 133.965 35.5337 133.429 34.6053C132.69 33.3199 131.931 32.0344 131.212 30.7387C131.08 30.5041 131.091 30.1776 131.03 29.892C131.101 29.8614 131.172 29.8308 131.242 29.8002C131.688 30.5245 132.143 31.2488 132.589 31.963C132.629 31.9426 132.66 31.9324 132.7 31.912C132.437 30.9122 132.153 29.892 131.85 28.7698ZM127.72 33.7075C129.673 35.8806 132.164 37.0844 134.674 38.2781C132.639 36.4315 130.949 34.1972 128.459 32.8098C128.216 33.1158 127.973 33.4117 127.72 33.7075Z" fill="white"/>
</svg>
