<svg width="68" height="32" viewBox="0 0 68 32" fill="none" xmlns="http://www.w3.org/2000/svg">
<path d="M0.5 6.9729C0.5 6.91718 0.532074 6.88933 0.596223 6.88933C0.679379 6.88933 0.811241 6.94383 0.991808 7.05284C2.66918 8.10901 4.84668 8.63709 7.52431 8.63709C9.16367 8.63709 10.7615 8.34761 12.3177 7.76866C12.5909 7.6645 12.8736 7.49493 13.1658 7.25995C13.4082 7.03225 13.6541 6.80696 13.9036 6.5841L13.9321 6.5405C13.9321 6.4654 13.7812 6.40606 13.4795 6.36245C13.3132 6.32612 13.1373 6.30068 12.952 6.28615C12.8356 6.26677 12.7049 6.205 12.56 6.10083C12.3984 6.00151 12.3129 5.89251 12.3034 5.77381V5.49039C12.3034 5.02286 12.5089 4.51294 12.9199 3.96064C13.331 3.40833 13.7503 3.08978 14.178 3.005C14.4084 3.10431 14.5237 3.26056 14.5237 3.47373C14.5237 3.56821 14.4987 3.70265 14.4488 3.87706C14.3871 4.06359 14.3098 4.16533 14.2172 4.18229C14.0271 3.98365 13.9024 3.88433 13.843 3.88433C13.6885 3.88433 13.451 4.06722 13.1302 4.433C12.8118 4.79637 12.6527 5.06162 12.6527 5.22877C12.6527 5.28448 12.661 5.31961 12.6776 5.33414C12.851 5.45284 13.0114 5.52188 13.1587 5.54126C13.6387 5.61151 13.8917 5.65148 13.9178 5.66117C14.2101 5.75079 14.3562 5.93974 14.3562 6.22801C14.3562 6.68827 14.1566 7.14247 13.7574 7.59061C13.4058 7.96124 12.9972 8.24345 12.5315 8.43724C11.7997 8.73036 10.9741 8.97623 10.0546 9.17487C9.09715 9.38319 8.24895 9.48736 7.51005 9.48736C5.51906 9.48736 3.95216 9.26328 2.80936 8.81514C2.55039 8.69644 2.38883 8.62256 2.32468 8.59349C1.89227 8.29553 1.54777 8.04724 1.29117 7.8486C0.763723 7.38834 0.5 7.09644 0.5 6.9729Z" fill="#417F56"/>
<path d="M15.0868 0.795761C15.1462 0.403331 15.2412 0.152612 15.3719 0.0436033C15.3932 0.0678274 15.4111 0.0847842 15.4253 0.0944739C15.4871 0.431188 15.5607 0.97623 15.6463 1.7296C15.7318 2.48054 15.8031 3.1564 15.8601 3.75715C15.9195 4.35791 15.9492 4.67525 15.9492 4.70916C15.9492 4.77941 15.9314 4.89084 15.8957 5.04345C15.8625 5.19364 15.7924 5.29538 15.6855 5.34868C15.6094 4.73338 15.5334 4.12173 15.4574 3.5137C15.3837 2.90568 15.303 2.30734 15.2151 1.7187C15.1295 1.12763 15.0868 0.819985 15.0868 0.795761Z" fill="#417F56"/>
<path d="M18.3227 4.59652C18.3227 4.39788 18.4071 4.07812 18.5757 3.63724C18.7611 3.20606 18.9202 2.91294 19.0533 2.75791C19.3693 2.92748 19.595 3.07888 19.7304 3.21211C19.9157 3.4059 20.0084 3.65662 20.0084 3.96427C20.0084 4.53111 19.8183 4.93565 19.4382 5.1779C19.4097 5.22634 19.3241 5.26389 19.1816 5.29054C19.0414 5.31476 18.9321 5.32687 18.8537 5.32687C18.685 5.32687 18.5496 5.24693 18.4474 5.08705C18.3643 4.93929 18.3227 4.77578 18.3227 4.59652ZM18.7682 4.26223C18.7682 4.31794 18.8003 4.37608 18.8644 4.43664C18.9309 4.49478 18.9832 4.52385 19.0212 4.52385H19.1317C19.3645 4.52385 19.5154 4.47419 19.5843 4.37487C19.5843 4.19561 19.5237 4.03815 19.4026 3.9025C19.2814 3.76442 19.1448 3.68085 18.9927 3.65178C18.843 3.91582 18.7682 4.1193 18.7682 4.26223Z" fill="#417F56"/>
<path d="M20.2044 7.53611C20.2044 7.48766 20.3779 7.41378 20.7247 7.31446C21.2451 7.14004 21.6026 6.99349 21.7974 6.87479C22.161 6.65677 22.4092 6.40606 22.5423 6.12263C22.566 6.05238 22.5779 6.01241 22.5779 6.00272C22.5779 5.69508 22.5506 5.44436 22.496 5.25057C22.4674 5.16821 22.3558 4.93081 22.161 4.53838C22.1918 4.14595 22.2453 3.90977 22.3213 3.82983L22.4674 3.92067C22.6052 4.13868 22.6837 4.2598 22.7027 4.28403C22.7906 4.38335 22.9117 4.45602 23.0662 4.50204C23.2562 4.57956 23.3786 4.60621 23.4332 4.58198V5.33414C23.2479 5.34383 23.065 5.32203 22.8844 5.26874V5.6103C22.8844 6.06086 22.7573 6.48236 22.5031 6.87479C22.2512 7.26722 21.9257 7.54701 21.5266 7.71416C20.6451 7.7408 20.2044 7.68145 20.2044 7.53611Z" fill="#417F56"/>
<path d="M23.2907 4.58198C23.4119 4.58683 23.5889 4.53717 23.8217 4.433C24.0545 4.32884 24.1935 4.27676 24.2387 4.27676C24.3266 4.27676 24.4786 4.32763 24.6948 4.42937C24.911 4.53111 25.0845 4.58198 25.2152 4.58198V5.33414C25.0655 5.33414 24.8849 5.27843 24.6735 5.16699C24.462 5.05556 24.3171 4.99985 24.2387 4.99985C24.203 4.99985 24.0807 5.05556 23.8716 5.16699C23.6625 5.27843 23.4903 5.33414 23.3548 5.33414H23.2907V4.58198ZM24.2957 6.5732C24.4074 6.24133 24.5095 6.05844 24.6022 6.02453C24.6853 6.06813 24.7756 6.12263 24.873 6.18804C24.9752 6.27282 25.0453 6.34913 25.0833 6.41696C25.0096 6.7997 24.9051 6.99107 24.7697 6.99107C24.7198 6.99107 24.6295 6.93899 24.4988 6.83482C24.3967 6.72581 24.329 6.63861 24.2957 6.5732ZM23.4404 6.90749C23.4404 6.79364 23.5283 6.60833 23.7041 6.35155C23.9726 6.5405 24.1448 6.67373 24.2208 6.75125V6.77668C24.2208 6.86389 24.1971 6.97048 24.1496 7.09644C24.0949 7.22967 24.0415 7.29629 23.9892 7.29629C23.9298 7.29629 23.8229 7.24542 23.6685 7.14368C23.5164 7.04194 23.4404 6.96321 23.4404 6.90749Z" fill="#417F56"/>
<path d="M25.0548 4.58198C25.4397 4.58198 25.8519 4.53232 26.2914 4.433C26.7666 4.30946 27.1598 4.15806 27.4711 3.9788C26.8628 3.77048 26.5183 3.66631 26.4376 3.66631C26.3354 3.66631 26.1762 3.70265 25.96 3.77532C25.7462 3.84799 25.581 3.88433 25.4646 3.88433C25.581 3.46768 25.6499 3.25087 25.6713 3.23391C25.7331 3.11522 25.8887 2.98925 26.1382 2.85602C26.2237 2.80757 26.3425 2.78335 26.4946 2.78335C26.5587 2.78335 26.8213 2.88509 27.2822 3.08857C27.793 3.32112 28.0995 3.45435 28.2016 3.48827C28.7315 3.65299 29.2352 3.73535 29.7127 3.73535C29.7579 3.77411 29.7828 3.8056 29.7876 3.82983C29.7876 3.91945 29.7258 4.09629 29.6022 4.36033H29.4811C29.1579 4.36033 28.9144 4.3349 28.7505 4.28403L28.7291 4.3894L28.7505 4.51658C28.8479 4.6159 28.9916 4.66556 29.1817 4.66556C29.4668 4.66556 29.7341 4.6377 29.9836 4.58198V5.33414L29.2031 5.34868C29.013 5.35352 28.8562 5.29054 28.7327 5.15973C28.6115 5.02892 28.5509 4.86662 28.5509 4.67282C28.5509 4.64133 28.5557 4.59531 28.5652 4.53475C28.577 4.47176 28.583 4.42332 28.583 4.3894V4.28403C28.3573 4.28403 28.0935 4.33611 27.7918 4.44027C27.3784 4.59531 27.0553 4.72975 26.8224 4.8436C26.3663 5.03255 26.0919 5.13914 25.9992 5.16336C25.688 5.27721 25.4005 5.33414 25.1368 5.33414H25.0548V4.58198ZM26.8688 6.5623C26.9757 6.17956 27.0874 5.9785 27.2038 5.95912C27.2774 5.96881 27.3748 6.00878 27.496 6.07903C27.6481 6.17835 27.7241 6.26313 27.7241 6.33338C27.7241 6.38668 27.6991 6.47994 27.6493 6.61317C27.6017 6.73429 27.5507 6.81908 27.496 6.86752H27.4604C27.3677 6.86752 27.256 6.83482 27.1254 6.76942C26.9543 6.71612 26.8688 6.64708 26.8688 6.5623Z" fill="#417F56"/>
<path d="M29.6806 2.2274C29.7876 1.84466 29.8992 1.6436 30.0156 1.62422C30.0893 1.63391 30.1867 1.67388 30.3079 1.74413C30.4599 1.84345 30.536 1.92824 30.536 1.99849C30.536 2.05178 30.511 2.14504 30.4611 2.27827C30.4136 2.39939 30.3625 2.48418 30.3079 2.53263H30.2722C30.1796 2.53263 30.0679 2.49992 29.9372 2.43452C29.7662 2.38123 29.6806 2.31219 29.6806 2.2274ZM29.8624 4.58198C30.1926 4.58683 30.3791 4.51537 30.4219 4.3676C30.4077 4.30704 30.3494 4.19319 30.2473 4.02604C30.1594 3.88554 30.1083 3.76805 30.094 3.67358C30.1487 3.51612 30.214 3.3405 30.2901 3.14671H30.3221C30.429 3.14671 30.5312 3.30295 30.6286 3.61544C30.7308 3.88917 30.7819 4.10477 30.7819 4.26223C30.7819 4.60378 30.7284 4.85935 30.6215 5.02892C30.4932 5.2324 30.2734 5.33414 29.9622 5.33414H29.8624V4.58198Z" fill="#417F56"/>
<path d="M30.536 6.85299C31.187 6.81181 31.5707 6.77668 31.6871 6.74761C32.0316 6.63861 32.3678 6.4218 32.6956 6.0972C33.0259 5.7726 33.2492 5.43104 33.3656 5.07252C33.254 4.87388 33.1471 4.67888 33.0449 4.48751C32.8786 4.16775 32.7954 3.95821 32.7954 3.85889L32.8204 3.77896C32.8299 3.75958 32.8608 3.67964 32.913 3.53914C32.9534 3.41559 32.9926 3.35382 33.0306 3.35382C33.1423 3.35382 33.2742 3.51976 33.4262 3.85163C33.5807 4.13989 33.6579 4.3567 33.6579 4.50204C33.6579 5.46858 33.3704 6.24739 32.7954 6.83845C32.5246 7.10492 32.2454 7.23815 31.9579 7.23815C31.7869 7.23815 31.3533 7.17638 30.6571 7.05284C30.6381 7.0383 30.5977 6.99349 30.536 6.91839V6.85299ZM32.1183 2.56533C32.2252 2.18259 32.3369 1.98153 32.4533 1.96215C32.5269 1.97184 32.6244 2.01181 32.7455 2.08206C32.8976 2.18138 32.9736 2.26616 32.9736 2.33641C32.9736 2.3897 32.9487 2.48297 32.8988 2.6162C32.8513 2.73732 32.8002 2.8221 32.7455 2.87055H32.7099C32.6172 2.87055 32.5056 2.83785 32.3749 2.77244C32.2038 2.71915 32.1183 2.65011 32.1183 2.56533Z" fill="#417F56"/>
<path d="M25.5608 6.9729C25.5608 6.91718 25.5929 6.88933 25.6571 6.88933C25.7402 6.88933 25.8721 6.94383 26.0527 7.05284C27.73 8.10901 29.9075 8.63709 32.5852 8.63709C34.2245 8.63709 35.8223 8.34761 37.3785 7.76866C37.6517 7.6645 37.9345 7.49493 38.2267 7.25995C38.469 7.03225 38.7149 6.80696 38.9644 6.5841L38.9929 6.5405C38.9929 6.4654 38.8421 6.40606 38.5403 6.36245C38.374 6.32612 38.1982 6.30068 38.0129 6.28615C37.8965 6.26677 37.7658 6.205 37.6208 6.10083C37.4593 6.00151 37.3738 5.89251 37.3643 5.77381V5.49039C37.3643 5.02286 37.5698 4.51294 37.9808 3.96064C38.3918 3.40833 38.8112 3.08978 39.2388 3.005C39.4693 3.10431 39.5845 3.26056 39.5845 3.47373C39.5845 3.56821 39.5596 3.70265 39.5097 3.87706C39.4479 4.06359 39.3707 4.16533 39.278 4.18229C39.088 3.98365 38.9632 3.88433 38.9038 3.88433C38.7494 3.88433 38.5118 4.06722 38.1911 4.433C37.8727 4.79637 37.7135 5.06162 37.7135 5.22877C37.7135 5.28448 37.7218 5.31961 37.7385 5.33414C37.9119 5.45284 38.0723 5.52188 38.2196 5.54126C38.6995 5.61151 38.9525 5.65148 38.9787 5.66117C39.2709 5.75079 39.417 5.93974 39.417 6.22801C39.417 6.68827 39.2174 7.14247 38.8183 7.59061C38.4667 7.96124 38.058 8.24345 37.5923 8.43724C36.8606 8.73036 36.0349 8.97623 35.1155 9.17487C34.158 9.38319 33.3098 9.48736 32.5709 9.48736C30.5799 9.48736 29.013 9.26328 27.8702 8.81514C27.6112 8.69644 27.4497 8.62256 27.3855 8.59349C26.9531 8.29553 26.6086 8.04724 26.352 7.8486C25.8246 7.38834 25.5608 7.09644 25.5608 6.9729Z" fill="#417F56"/>
<path d="M39.9872 0.741257C40.0561 0.346404 40.1048 0.0993187 40.1333 0C40.1975 0.0581378 40.2415 0.162301 40.2652 0.31249C40.2961 0.380318 40.3187 0.489326 40.3329 0.639515C40.5753 2.44905 40.6988 3.39379 40.7036 3.47373C40.7725 3.9461 40.8259 4.21378 40.8639 4.27676C40.9708 4.48024 41.1752 4.58198 41.4769 4.58198V5.33414C41.0493 5.33414 40.7891 5.24936 40.6964 5.07979C40.6228 4.97562 40.5479 4.73823 40.4719 4.3676C40.4505 4.20288 40.4161 3.94731 40.3686 3.60091C40.1975 2.13293 40.0704 1.17971 39.9872 0.741257Z" fill="#417F56"/>
<path d="M41.3379 4.58198C41.5304 4.58198 41.7466 4.55049 41.9865 4.48751C42.274 4.41726 42.476 4.33732 42.5924 4.24769C42.4665 3.96911 42.4035 3.81287 42.4035 3.77896C42.4035 3.66995 42.4522 3.53793 42.5496 3.38289C42.6518 3.20121 42.7124 3.07525 42.7314 3.005C42.6625 2.96139 42.628 2.88388 42.628 2.77244C42.628 2.65859 42.6625 2.5302 42.7314 2.38728C42.7979 2.21771 42.8775 2.13293 42.9702 2.13293C43.2624 2.13293 43.601 2.36185 43.9859 2.81968C44.2923 3.17578 44.4527 3.36351 44.467 3.38289C44.6665 3.65662 44.7663 3.89039 44.7663 4.08418C44.7663 4.17381 44.676 4.3676 44.4955 4.66556C44.4432 4.73338 44.3482 4.7673 44.2104 4.7673C43.7447 4.7673 43.3954 4.70795 43.1626 4.58925C42.8846 4.74428 42.609 4.89811 42.3358 5.05072C41.9462 5.23967 41.6349 5.33414 41.4021 5.33414H41.3379V4.58198ZM43.5119 4.10598C43.9443 4.21983 44.2044 4.27676 44.2923 4.27676C44.3565 4.27676 44.3886 4.25254 44.3886 4.20409C44.3886 4.10477 44.2781 3.94126 44.0571 3.71355C43.8979 3.53914 43.7399 3.39985 43.5831 3.29569C43.6235 3.56215 43.5998 3.83225 43.5119 4.10598ZM42.628 3.79349C42.628 3.84921 42.6375 3.87948 42.6565 3.88433C42.8038 3.96669 42.9523 3.99818 43.102 3.9788C43.2636 3.8698 43.3444 3.75594 43.3444 3.63724C43.3444 3.53793 43.3194 3.44345 43.2695 3.35382C43.2172 3.26904 43.1495 3.22665 43.0664 3.22665C42.9927 3.22665 42.9013 3.30174 42.792 3.45193C42.6827 3.5997 42.628 3.71355 42.628 3.79349Z" fill="#417F56"/>
<path d="M35.4434 6.83845C35.4434 6.80212 35.4707 6.78395 35.5253 6.78395C35.5942 6.78395 35.7427 6.84693 35.9708 6.9729C37.23 7.6221 38.3099 8.05814 39.2103 8.281C40.2129 8.51839 41.3569 8.63709 42.6423 8.63709C44.6166 8.63709 46.1776 8.45057 47.3252 8.07752C48.4751 7.70689 49.347 7.0056 49.941 5.97366C49.941 5.65148 49.8412 5.29417 49.6416 4.90174C49.4421 4.50931 49.3423 4.29129 49.3423 4.24769C49.3423 4.15322 49.4052 3.94247 49.5312 3.61544C49.5217 3.50643 49.543 3.45193 49.5953 3.45193C49.6927 3.45193 49.8412 3.71718 50.0408 4.24769C50.2451 4.75397 50.3473 5.09432 50.3473 5.26874C50.4304 5.94216 50.1453 6.65556 49.492 7.40893C48.841 8.16472 47.798 8.72309 46.3629 9.08403C45.1085 9.33353 43.8944 9.45829 42.7207 9.45829C41.787 9.45829 40.9019 9.41105 40.0656 9.31658C38.9418 9.16154 38.0996 8.93505 37.5389 8.63709C37.2086 8.46995 36.8439 8.21923 36.4448 7.88493C36.2642 7.71779 36.0789 7.55912 35.8888 7.40893C35.5918 7.13762 35.4434 6.94746 35.4434 6.83845ZM48.07 1.7514C48.07 1.70295 48.1223 1.60121 48.2268 1.44618C48.3313 1.28872 48.3979 1.20999 48.4264 1.20999C48.4668 1.20999 48.5666 1.25238 48.7257 1.33717C48.8968 1.43649 48.9823 1.51764 48.9823 1.58062C48.9823 1.62665 48.9336 1.72354 48.8362 1.87131C48.7483 2.04088 48.6723 2.12566 48.6081 2.12566C48.5511 2.12566 48.4466 2.07721 48.2945 1.98032C48.1448 1.88342 48.07 1.80712 48.07 1.7514Z" fill="#417F56"/>
<path d="M50.8961 0.795761C50.9555 0.403331 51.0505 0.152612 51.1812 0.0436033C51.2026 0.0678274 51.2204 0.0847842 51.2347 0.0944739C51.2965 0.431188 51.3701 0.97623 51.4556 1.7296C51.5412 2.48054 51.6124 3.1564 51.6695 3.75715C51.7289 4.35791 51.7586 4.67525 51.7586 4.70916C51.7586 4.77941 51.7407 4.89084 51.7051 5.04345C51.6718 5.19364 51.6018 5.29538 51.4948 5.34868C51.4188 4.73338 51.3428 4.12173 51.2668 3.5137C51.1931 2.90568 51.1123 2.30734 51.0244 1.7187C50.9389 1.12763 50.8961 0.819985 50.8961 0.795761Z" fill="#417F56"/>
<path d="M51.5412 6.85299C52.1922 6.81181 52.5759 6.77668 52.6923 6.74761C53.0368 6.63861 53.373 6.4218 53.7009 6.0972C54.0311 5.7726 54.2544 5.43104 54.3708 5.07252C54.2592 4.87388 54.1523 4.67888 54.0501 4.48751C53.8838 4.16775 53.8006 3.95821 53.8006 3.85889L53.8256 3.77896C53.8351 3.75958 53.866 3.67964 53.9182 3.53914C53.9586 3.41559 53.9978 3.35382 54.0359 3.35382C54.1475 3.35382 54.2794 3.51976 54.4314 3.85163C54.5859 4.13989 54.6631 4.3567 54.6631 4.50204C54.6631 5.46858 54.3756 6.24739 53.8006 6.83845C53.5298 7.10492 53.2506 7.23815 52.9631 7.23815C52.7921 7.23815 52.3585 7.17638 51.6623 7.05284C51.6433 7.0383 51.6029 6.99349 51.5412 6.91839V6.85299Z" fill="#417F56"/>
<path d="M54.6453 6.79122C54.6643 6.77668 54.6999 6.76942 54.7522 6.76942H55.1121C55.6182 6.76942 55.9615 6.74519 56.1421 6.69674C56.3797 6.61681 56.6707 6.42786 57.0152 6.1299C57.3763 5.8271 57.5985 5.56185 57.6816 5.33414C57.2777 5.33414 57.0093 5.30628 56.8762 5.25057C56.6339 5.16821 56.5127 4.95746 56.5127 4.61832C56.5127 4.40515 56.5911 4.16533 56.7479 3.89886C56.9166 3.60091 57.0865 3.45193 57.2575 3.45193C57.3835 3.45193 57.5272 3.60818 57.6888 3.92067C57.8385 4.16291 57.9382 4.38335 57.9881 4.58198H58.177V5.33414H57.9133C57.88 5.67086 57.6935 6.04754 57.3538 6.46419C57.0069 6.85662 56.6731 7.11219 56.3523 7.23089C56.0649 7.18244 55.7358 7.12309 55.3652 7.05284C54.8852 6.94383 54.6453 6.85662 54.6453 6.79122ZM56.894 4.44027C57.0057 4.53475 57.1316 4.58198 57.2718 4.58198C57.2956 4.58198 57.3253 4.57714 57.3609 4.56745C57.3609 4.49235 57.3431 4.41847 57.3074 4.3458C57.2552 4.24648 57.197 4.19682 57.1328 4.19682C57.0164 4.19682 56.9368 4.27797 56.894 4.44027Z" fill="#417F56"/>
<path d="M58.0523 4.58198C58.1735 4.58683 58.3505 4.53717 58.5833 4.433C58.8161 4.32884 58.9551 4.27676 59.0003 4.27676C59.0882 4.27676 59.2402 4.32763 59.4564 4.42937C59.6726 4.53111 59.8461 4.58198 59.9768 4.58198V5.33414C59.8271 5.33414 59.6465 5.27843 59.4351 5.16699C59.2236 5.05556 59.0787 4.99985 59.0003 4.99985C58.9646 4.99985 58.8423 5.05556 58.6332 5.16699C58.4241 5.27843 58.2519 5.33414 58.1164 5.33414H58.0523V4.58198ZM58.9076 2.49992C59.0193 2.16805 59.1214 1.98516 59.2141 1.95125C59.2972 1.99485 59.3875 2.04936 59.4849 2.11476C59.5871 2.19955 59.6572 2.27585 59.6952 2.34368C59.6216 2.72642 59.517 2.91779 59.3816 2.91779C59.3317 2.91779 59.2414 2.86571 59.1107 2.76154C59.0086 2.65254 58.9409 2.56533 58.9076 2.49992ZM58.0523 2.83422C58.0523 2.72036 58.1402 2.53505 58.316 2.27827C58.5845 2.46722 58.7567 2.60045 58.8328 2.67797V2.70341C58.8328 2.79061 58.809 2.8972 58.7615 3.02316C58.7068 3.1564 58.6534 3.22301 58.6011 3.22301C58.5417 3.22301 58.4348 3.17214 58.2804 3.0704C58.1283 2.96866 58.0523 2.88993 58.0523 2.83422Z" fill="#417F56"/>
<path d="M59.8164 4.58198C60.1538 4.58198 60.4757 4.54201 60.7822 4.46207C61.2383 4.35307 61.5033 4.19682 61.5769 3.99334C61.6506 3.78986 61.7183 3.66389 61.78 3.61544C61.8014 3.62998 61.8121 3.66268 61.8121 3.71355C61.8121 3.87101 61.7682 4.08176 61.6803 4.3458C61.7468 4.37002 61.805 4.38213 61.8549 4.38213C62.3514 4.38213 62.6971 4.30704 62.892 4.15685C63.0131 4.05753 63.1058 3.89402 63.1699 3.66631C63.2317 3.4483 63.3279 3.31264 63.4586 3.25935L63.4764 3.28842C63.4859 3.30295 63.4907 3.31991 63.4907 3.33929C63.4907 3.41438 63.4586 3.59606 63.3945 3.88433C63.4634 3.99334 63.5335 4.05995 63.6047 4.08418C63.6261 4.08902 63.7307 4.11325 63.9184 4.15685L64.1037 4.08418C64.1037 4.03331 64.093 3.9788 64.0716 3.92067C64.0526 3.86011 64.0431 3.81771 64.0431 3.79349C64.0431 3.76442 64.0752 3.65057 64.1393 3.45193C64.2225 3.22422 64.264 3.1031 64.264 3.08857C64.3163 3.08857 64.3698 3.17214 64.4244 3.33929C64.4719 3.47252 64.4957 3.58153 64.4957 3.66631C64.4957 3.95942 64.4446 4.22468 64.3424 4.46207C64.207 4.77456 64.0122 4.93081 63.758 4.93081C63.632 4.93081 63.4182 4.83755 63.1165 4.65102C63.0428 4.8327 62.8706 4.9732 62.5997 5.07252C62.3907 5.14277 62.1685 5.1779 61.9333 5.1779C61.7005 5.1779 61.4842 5.14277 61.2847 5.07252C60.8238 5.24693 60.3937 5.33414 59.9946 5.33414H59.8164V4.58198Z" fill="#417F56"/>
<path d="M64.3781 6.85299C65.0291 6.81181 65.4128 6.77668 65.5292 6.74761C65.8737 6.63861 66.2099 6.4218 66.5378 6.0972C66.868 5.7726 67.0913 5.43104 67.2078 5.07252C67.0961 4.87388 66.9892 4.67888 66.887 4.48751C66.7207 4.16775 66.6376 3.95821 66.6376 3.85889L66.6625 3.77896C66.672 3.75958 66.7029 3.67964 66.7552 3.53914C66.7955 3.41559 66.8347 3.35382 66.8728 3.35382C66.9844 3.35382 67.1163 3.51976 67.2683 3.85163C67.4228 4.13989 67.5 4.3567 67.5 4.50204C67.5 5.46858 67.2125 6.24739 66.6376 6.83845C66.3667 7.10492 66.0875 7.23815 65.8001 7.23815C65.629 7.23815 65.1954 7.17638 64.4992 7.05284C64.4802 7.0383 64.4399 6.99349 64.3781 6.91839V6.85299Z" fill="#417F56"/>
<path d="M14.3121 25.3375H13.1265C11.6085 25.3375 10.2836 24.8612 9.15184 23.9088C8.09193 23.0205 7.33742 21.8299 6.88831 20.3371C6.6907 19.6777 6.25506 19.348 5.58139 19.348C5.18617 19.348 4.84934 19.4854 4.57089 19.7602C4.30142 20.0257 4.16669 20.3554 4.16669 20.7492C4.16669 21.143 4.30142 21.4819 4.57089 21.7658C4.84934 22.0405 5.18617 22.1779 5.58139 22.1779H7.75061V25.3375H5.7296C4.47208 25.3375 3.38523 24.9024 2.46904 24.0324C1.56183 23.1624 1.10823 22.068 1.10823 20.7492C1.10823 19.4946 1.54387 18.4231 2.41515 17.5347C3.28643 16.6464 4.34184 16.2022 5.58139 16.2022C6.54249 16.2022 7.42275 16.5044 8.22217 17.1089C9.02159 17.7042 9.56951 18.4734 9.86593 19.4167C10.4228 21.2575 11.5097 22.1779 13.1265 22.1779H14.3121V25.3375Z" fill="#417F56"/>
<path d="M20.1865 13.6608H18.6506C18.2284 13.6608 17.8646 13.5097 17.5592 13.2075C17.2538 12.8961 17.1011 12.5252 17.1011 12.0948C17.1011 11.6644 17.2538 11.2935 17.5592 10.9821C17.8646 10.6707 18.2284 10.515 18.6506 10.515C19.0727 10.515 19.432 10.6707 19.7284 10.9821C20.0338 11.2935 20.1865 11.6644 20.1865 12.0948V13.6608ZM25.495 25.3375H24.2959C23.0474 25.3375 21.8977 24.9482 20.8467 24.1698V25.3375H13.1265V22.1779H17.7613V16.2984H20.8467V18.2628C20.8467 19.3893 21.1656 20.3234 21.8033 21.0652C22.4411 21.807 23.2719 22.1779 24.2959 22.1779H25.495V25.3375Z" fill="#417F56"/>
<path d="M36.5702 25.3375H35.371C34.1225 25.3375 32.9728 24.9482 31.9218 24.1698V25.3375H24.2016V22.1779H28.8364V16.2984H31.9218V18.2628C31.9218 19.3893 32.2407 20.3234 32.8785 21.0652C33.5162 21.807 34.3471 22.1779 35.371 22.1779H36.5702V25.3375ZM34.0372 30.9285H32.4743C32.0521 30.9285 31.6883 30.7728 31.3829 30.4614C31.0865 30.1501 30.9383 29.7792 30.9383 29.3487C30.9383 28.9091 31.0865 28.5382 31.3829 28.236C31.6883 27.9338 32.0521 27.7827 32.4743 27.7827C32.9054 27.7827 33.2737 27.9338 33.5791 28.236C33.8845 28.5382 34.0372 28.9091 34.0372 29.3487V30.9285ZM30.5341 30.9285H28.9847C28.5535 30.9285 28.1852 30.7728 27.8798 30.4614C27.5834 30.1501 27.4352 29.7792 27.4352 29.3487C27.4352 28.9091 27.5834 28.5382 27.8798 28.236C28.1852 27.9338 28.5535 27.7827 28.9847 27.7827C29.4068 27.7827 29.7706 27.9338 30.076 28.236C30.3814 28.5382 30.5341 28.9091 30.5341 29.3487V30.9285Z" fill="#417F56"/>
<path d="M50.5825 25.3375H35.2767V22.1779H47.3219C47.0614 21.372 46.5944 20.7126 45.9207 20.1997C45.256 19.6869 44.4925 19.4305 43.6302 19.4305L39.0358 19.4442V16.2984H43.6302C45.5434 16.2984 47.1782 16.9898 48.5345 18.3727C49.8998 19.7464 50.5825 21.4132 50.5825 23.373V25.3375ZM42.6871 14.6774H41.1511C40.7289 14.6774 40.3652 14.5263 40.0598 14.2241C39.7544 13.9127 39.6017 13.5418 39.6017 13.1114C39.6017 12.6809 39.7544 12.31 40.0598 11.9986C40.3652 11.6873 40.7289 11.5316 41.1511 11.5316C41.5733 11.5316 41.9326 11.6873 42.229 11.9986C42.5344 12.31 42.6871 12.6809 42.6871 13.1114V14.6774Z" fill="#417F56"/>
<path d="M60.3433 25.3375H59.1442C57.9046 25.3375 56.7549 24.9482 55.695 24.1698V24.9253C55.695 26.9035 54.9944 28.5749 53.5932 29.9394C52.2009 31.3131 50.4584 32 48.3655 32V28.8542C49.614 28.8542 50.6335 28.4741 51.424 27.714C52.2234 26.9539 52.6231 26.0243 52.6231 24.9253V16.2984H55.695V18.2628C55.695 19.3893 56.0139 20.3234 56.6516 21.0652C57.2983 21.807 58.1292 22.1779 59.1442 22.1779H60.3433V25.3375Z" fill="#417F56"/>
<path d="M66.8644 25.3375H59.1442V22.1779H63.779V16.2984H66.8644V25.3375ZM66.9992 13.4411H65.4363C65.0141 13.4411 64.6503 13.2854 64.3449 12.974C64.0485 12.6626 63.9003 12.2917 63.9003 11.8613C63.9003 11.4217 64.0485 11.0508 64.3449 10.7486C64.6503 10.4463 65.0141 10.2952 65.4363 10.2952C65.8674 10.2952 66.2357 10.4463 66.5411 10.7486C66.8465 11.0508 66.9992 11.4217 66.9992 11.8613V13.4411ZM63.4961 13.4411H61.9467C61.5155 13.4411 61.1472 13.2854 60.8418 12.974C60.5454 12.6626 60.3972 12.2917 60.3972 11.8613C60.3972 11.4217 60.5454 11.0508 60.8418 10.7486C61.1472 10.4463 61.5155 10.2952 61.9467 10.2952C62.3688 10.2952 62.7326 10.4463 63.038 10.7486C63.3434 11.0508 63.4961 11.4217 63.4961 11.8613V13.4411Z" fill="#417F56"/>
</svg>
