<svg width="100" height="47" viewBox="0 0 100 47" fill="none" xmlns="http://www.w3.org/2000/svg">
<path d="M0.853516 10.3986C0.853516 10.3177 0.900979 10.2773 0.995906 10.2773C1.11896 10.2773 1.31409 10.3564 1.58129 10.5146C4.06345 12.0475 7.28569 12.8139 11.248 12.8139C13.6739 12.8139 16.0383 12.3938 18.3412 11.5535C18.7455 11.4023 19.1639 11.1562 19.5963 10.8152C19.9549 10.4847 20.3188 10.1577 20.688 9.83429L20.7301 9.77101C20.7301 9.66202 20.5069 9.57588 20.0604 9.51259C19.8143 9.45986 19.5541 9.42294 19.2799 9.40185C19.1076 9.37372 18.9142 9.28407 18.6998 9.13289C18.4607 8.98874 18.3341 8.83053 18.3201 8.65825V8.2469C18.3201 7.56835 18.6242 6.82827 19.2324 6.02667C19.8406 5.22506 20.4612 4.76274 21.094 4.63968C21.4351 4.78383 21.6056 5.0106 21.6056 5.31999C21.6056 5.45711 21.5687 5.65224 21.4948 5.90537C21.4034 6.17609 21.2892 6.32375 21.152 6.34837C20.8708 6.06007 20.6862 5.91592 20.5983 5.91592C20.3698 5.91592 20.0182 6.18136 19.5436 6.71225C19.0724 7.23962 18.8369 7.6246 18.8369 7.8672C18.8369 7.94806 18.8492 7.99904 18.8738 8.02013C19.1305 8.19241 19.3678 8.29261 19.5857 8.32073C20.2959 8.42269 20.6704 8.4807 20.709 8.49477C21.1415 8.62485 21.3577 8.89909 21.3577 9.31747C21.3577 9.98547 21.0624 10.6447 20.4717 11.2951C19.9514 11.833 19.3467 12.2426 18.6576 12.5239C17.5747 12.9493 16.353 13.3062 14.9923 13.5944C13.5755 13.8968 12.3203 14.048 11.2269 14.048C8.28066 14.048 5.96199 13.7228 4.27088 13.0724C3.88766 12.9001 3.64858 12.7928 3.55366 12.7507C2.91378 12.3182 2.40399 11.9578 2.02428 11.6695C1.24377 11.0015 0.853516 10.5779 0.853516 10.3986Z" fill="#417F56"/>
<path d="M22.4388 1.43326C22.5267 0.863703 22.6674 0.499816 22.8607 0.341605C22.8924 0.376763 22.9187 0.401374 22.9398 0.415437C23.0312 0.904134 23.1402 1.69519 23.2668 2.78861C23.3934 3.87851 23.4988 4.85942 23.5832 5.73134C23.6711 6.60326 23.7151 7.06383 23.7151 7.11305C23.7151 7.21501 23.6887 7.37674 23.636 7.59824C23.5867 7.81622 23.483 7.96388 23.3248 8.04123C23.2123 7.14821 23.0998 6.26047 22.9873 5.378C22.8783 4.49553 22.7588 3.62713 22.6287 2.77279C22.5021 1.91493 22.4388 1.46842 22.4388 1.43326Z" fill="#417F56"/>
<path d="M27.2274 6.94957C27.2274 6.66127 27.3522 6.19719 27.6018 5.55731C27.876 4.93149 28.1116 4.50608 28.3085 4.28107C28.7761 4.52718 29.1101 4.74691 29.3105 4.94028C29.5847 5.22155 29.7218 5.58543 29.7218 6.03194C29.7218 6.85464 29.4406 7.44178 28.878 7.79336C28.8358 7.86368 28.7093 7.91817 28.4983 7.95685C28.2909 7.99201 28.1292 8.00959 28.0131 8.00959C27.7635 8.00959 27.5631 7.89356 27.4119 7.66152C27.2889 7.44706 27.2274 7.20974 27.2274 6.94957ZM27.8866 6.46439C27.8866 6.54525 27.934 6.62963 28.029 6.71753C28.1274 6.8019 28.2048 6.84409 28.261 6.84409H28.4245C28.769 6.84409 28.9923 6.77202 29.0943 6.62787C29.0943 6.3677 29.0046 6.13917 28.8253 5.94229C28.646 5.74189 28.4438 5.62059 28.2188 5.5784C27.9973 5.96163 27.8866 6.25695 27.8866 6.46439Z" fill="#417F56"/>
<path d="M30.0119 11.216C30.0119 11.1457 30.2685 11.0385 30.7818 10.8943C31.5518 10.6412 32.0809 10.4285 32.3692 10.2562C32.9072 9.93976 33.2746 9.57588 33.4714 9.16453C33.5066 9.06257 33.5242 9.00456 33.5242 8.9905C33.5242 8.54399 33.4837 8.1801 33.4029 7.89884C33.3607 7.7793 33.1954 7.43475 32.9072 6.86519C32.9529 6.29563 33.032 5.95284 33.1445 5.83682L33.3607 5.96866C33.5646 6.28508 33.6806 6.46087 33.7088 6.49603C33.8388 6.64018 34.0181 6.74565 34.2467 6.81245C34.5279 6.92496 34.709 6.96363 34.7899 6.92847V8.02013C34.5156 8.0342 34.2449 8.00255 33.9777 7.92521V8.42094C33.9777 9.07488 33.7896 9.68663 33.4134 10.2562C33.0407 10.8257 32.5591 11.2318 31.9684 11.4744C30.6641 11.5131 30.0119 11.427 30.0119 11.216Z" fill="#417F56"/>
<path d="M34.5789 6.92847C34.7582 6.93551 35.0201 6.86343 35.3647 6.71225C35.7093 6.56107 35.9149 6.48548 35.9817 6.48548C36.1118 6.48548 36.3368 6.55931 36.6568 6.70698C36.9767 6.85464 37.2334 6.92847 37.4267 6.92847V8.02013C37.2052 8.02013 36.938 7.93927 36.6251 7.77754C36.3122 7.61581 36.0977 7.53495 35.9817 7.53495C35.929 7.53495 35.7479 7.61581 35.4385 7.77754C35.1291 7.93927 34.8742 8.02013 34.6738 8.02013H34.5789V6.92847ZM36.0661 9.81847C36.2313 9.3368 36.3825 9.07136 36.5196 9.02214C36.6427 9.08542 36.7763 9.16453 36.9204 9.25946C37.0716 9.38251 37.1753 9.49326 37.2316 9.5917C37.1226 10.1472 36.9679 10.4249 36.7675 10.4249C36.6937 10.4249 36.5601 10.3494 36.3667 10.1982C36.2155 10.04 36.1153 9.9134 36.0661 9.81847ZM34.8004 10.3037C34.8004 10.1384 34.9305 9.86945 35.1907 9.49677C35.588 9.77101 35.8428 9.96438 35.9554 10.0769V10.1138C35.9554 10.2404 35.9202 10.3951 35.8499 10.5779C35.769 10.7713 35.6899 10.8679 35.6126 10.8679C35.5247 10.8679 35.3665 10.7941 35.1379 10.6464C34.9129 10.4988 34.8004 10.3845 34.8004 10.3037Z" fill="#417F56"/>
<path d="M37.1894 6.92847C37.759 6.92847 38.369 6.8564 39.0194 6.71225C39.7225 6.53295 40.3044 6.31321 40.765 6.05304C39.8649 5.75068 39.3551 5.5995 39.2356 5.5995C39.0844 5.5995 38.8489 5.65224 38.5289 5.75771C38.2125 5.86318 37.9682 5.91592 37.7959 5.91592C37.9682 5.3112 38.0701 4.99654 38.1018 4.97193C38.1932 4.79965 38.4235 4.61683 38.7926 4.42346C38.9192 4.35314 39.095 4.31799 39.32 4.31799C39.4149 4.31799 39.8034 4.46565 40.4855 4.76098C41.2414 5.0985 41.6949 5.29186 41.8461 5.34109C42.6301 5.58016 43.3755 5.6997 44.0821 5.6997C44.1489 5.75595 44.1859 5.80166 44.1929 5.83682C44.1929 5.9669 44.1015 6.22355 43.9187 6.60678H43.7394C43.2612 6.60678 42.9008 6.56986 42.6582 6.49603L42.6266 6.64897L42.6582 6.83355C42.8024 6.9777 43.0151 7.04977 43.2964 7.04977C43.7183 7.04977 44.1138 7.00934 44.483 6.92847V8.02013L43.328 8.04123C43.0467 8.04826 42.8147 7.95685 42.6319 7.76699C42.4526 7.57714 42.3629 7.34158 42.3629 7.06032C42.3629 7.01461 42.3699 6.94781 42.384 6.85992C42.4016 6.7685 42.4104 6.69819 42.4104 6.64897V6.49603C42.0764 6.49603 41.6861 6.57162 41.2396 6.7228C40.6279 6.94781 40.1497 7.14294 39.8052 7.30818C39.1301 7.58241 38.7241 7.73711 38.5869 7.77227C38.1264 7.93751 37.701 8.02013 37.3107 8.02013H37.1894V6.92847ZM39.8737 9.80265C40.0319 9.24715 40.1972 8.95534 40.3695 8.92721C40.4784 8.94127 40.6226 8.99929 40.8019 9.10124C41.0269 9.24539 41.1394 9.36845 41.1394 9.4704C41.1394 9.54775 41.1025 9.68311 41.0287 9.87648C40.9584 10.0523 40.8828 10.1753 40.8019 10.2456H40.7492C40.612 10.2456 40.4468 10.1982 40.2534 10.1033C40.0003 10.0259 39.8737 9.9257 39.8737 9.80265Z" fill="#417F56"/>
<path d="M44.0347 3.51111C44.1929 2.95561 44.3581 2.6638 44.5304 2.63567C44.6394 2.64973 44.7836 2.70774 44.9629 2.8097C45.1879 2.95385 45.3004 3.0769 45.3004 3.17886C45.3004 3.25621 45.2635 3.39157 45.1896 3.58494C45.1193 3.76073 45.0437 3.88378 44.9629 3.9541H44.9101C44.773 3.9541 44.6078 3.90664 44.4144 3.81171C44.1613 3.73436 44.0347 3.63416 44.0347 3.51111ZM44.3036 6.92847C44.7923 6.93551 45.0683 6.83179 45.1316 6.61732C45.1105 6.52943 45.0244 6.36419 44.8732 6.1216C44.7431 5.91768 44.6675 5.74716 44.6464 5.61005C44.7273 5.38152 44.824 5.12662 44.9365 4.84536H44.984C45.1422 4.84536 45.2933 5.07213 45.4375 5.52567C45.5887 5.92295 45.6643 6.23586 45.6643 6.46439C45.6643 6.96012 45.5852 7.33103 45.4269 7.57714C45.2371 7.87247 44.9119 8.02013 44.4513 8.02013H44.3036V6.92847Z" fill="#417F56"/>
<path d="M45.3004 10.2245C46.2637 10.1648 46.8315 10.1138 47.0038 10.0716C47.5136 9.9134 48.0111 9.59873 48.4962 9.12761C48.9849 8.65649 49.3154 8.16077 49.4877 7.64043C49.3225 7.35213 49.1643 7.06911 49.0131 6.79136C48.767 6.32727 48.6439 6.02315 48.6439 5.879L48.6808 5.76298C48.6949 5.73486 48.7406 5.61883 48.8179 5.41492C48.8777 5.23561 48.9357 5.14596 48.992 5.14596C49.1572 5.14596 49.3523 5.38679 49.5774 5.86846C49.8059 6.28684 49.9202 6.6015 49.9202 6.81245C49.9202 8.21526 49.4947 9.34559 48.6439 10.2035C48.2431 10.5902 47.83 10.7836 47.4046 10.7836C47.1515 10.7836 46.5098 10.6939 45.4797 10.5146C45.4516 10.4935 45.3918 10.4285 45.3004 10.3195V10.2245ZM47.6419 4.00156C47.8001 3.44606 47.9654 3.15425 48.1376 3.12613C48.2466 3.14019 48.3908 3.1982 48.5701 3.30016C48.7951 3.44431 48.9076 3.56736 48.9076 3.66932C48.9076 3.74667 48.8707 3.88203 48.7968 4.07539C48.7265 4.25119 48.6509 4.37424 48.5701 4.44455H48.5173C48.3802 4.44455 48.215 4.39709 48.0216 4.30216C47.7685 4.22482 47.6419 4.12462 47.6419 4.00156Z" fill="#417F56"/>
<path d="M37.9383 10.3986C37.9383 10.3177 37.9857 10.2773 38.0807 10.2773C38.2037 10.2773 38.3988 10.3564 38.666 10.5146C41.1482 12.0475 44.3704 12.8139 48.3328 12.8139C50.7587 12.8139 53.1231 12.3938 55.4259 11.5535C55.8302 11.4023 56.2486 11.1562 56.6811 10.8152C57.0397 10.4847 57.4035 10.1577 57.7727 9.83429L57.8149 9.77101C57.8149 9.66202 57.5916 9.57588 57.1451 9.51259C56.899 9.45986 56.6389 9.42294 56.3646 9.40185C56.1924 9.37372 55.999 9.28407 55.7845 9.13289C55.5454 8.98874 55.4189 8.83053 55.4048 8.65825V8.2469C55.4048 7.56835 55.7089 6.82827 56.3172 6.02667C56.9254 5.22506 57.5459 4.76274 58.1788 4.63968C58.5198 4.78383 58.6903 5.0106 58.6903 5.31999C58.6903 5.45711 58.6534 5.65224 58.5796 5.90537C58.4882 6.17609 58.3739 6.32375 58.2368 6.34837C57.9555 6.06007 57.771 5.91592 57.6831 5.91592C57.4545 5.91592 57.103 6.18136 56.6283 6.71225C56.1572 7.23962 55.9216 7.6246 55.9216 7.8672C55.9216 7.94806 55.9339 7.99904 55.9586 8.02013C56.2152 8.19241 56.4525 8.29261 56.6705 8.32073C57.3807 8.42269 57.7551 8.4807 57.7938 8.49477C58.2262 8.62485 58.4425 8.89909 58.4425 9.31747C58.4425 9.98547 58.1471 10.6447 57.5565 11.2951C57.0361 11.833 56.4314 12.2426 55.7423 12.5239C54.6595 12.9493 53.4377 13.3062 52.0771 13.5944C50.6602 13.8968 49.4051 14.048 48.3117 14.048C45.3654 14.048 43.0467 13.7228 41.3556 13.0724C40.9724 12.9001 40.7333 12.7928 40.6384 12.7507C39.9985 12.3182 39.4887 11.9578 39.109 11.6695C38.3285 11.0015 37.9383 10.5779 37.9383 10.3986Z" fill="#417F56"/>
<path d="M59.2863 1.35416C59.3882 0.781081 59.4603 0.422468 59.5025 0.27832C59.5974 0.3627 59.6625 0.51388 59.6976 0.73186C59.7433 0.830302 59.7767 0.988514 59.7978 1.20649C60.1564 3.8328 60.3393 5.20397 60.3463 5.31999C60.4482 6.00557 60.5273 6.39407 60.5836 6.48548C60.7418 6.78081 61.0442 6.92847 61.4907 6.92847V8.02013C60.8578 8.02013 60.4729 7.89708 60.3357 7.65097C60.2267 7.49979 60.116 7.15524 60.0035 6.61732C59.9718 6.37825 59.9209 6.00733 59.8506 5.50457C59.5974 3.37399 59.4093 1.99052 59.2863 1.35416Z" fill="#417F56"/>
<path d="M61.285 6.92847C61.5698 6.92847 61.8897 6.88277 62.2448 6.79136C62.6702 6.6894 62.9691 6.57338 63.1413 6.44329C62.955 6.03897 62.8618 5.8122 62.8618 5.76298C62.8618 5.60477 62.9339 5.41316 63.0781 5.18815C63.2292 4.92446 63.3189 4.74164 63.347 4.63968C63.2451 4.5764 63.1941 4.46389 63.1941 4.30216C63.1941 4.13692 63.2451 3.95058 63.347 3.74315C63.4455 3.49704 63.5632 3.37399 63.7004 3.37399C64.1328 3.37399 64.6338 3.70623 65.2034 4.37072C65.6569 4.88755 65.8942 5.16002 65.9153 5.18815C66.2106 5.58543 66.3583 5.92471 66.3583 6.20598C66.3583 6.33606 66.2247 6.61732 65.9575 7.04977C65.8802 7.14821 65.7395 7.19743 65.5356 7.19743C64.8465 7.19743 64.3297 7.1113 63.9851 6.93902C63.5738 7.16403 63.166 7.38729 62.7616 7.60878C62.1851 7.88302 61.7245 8.02013 61.3799 8.02013H61.285V6.92847ZM64.502 6.23762C65.1418 6.40286 65.5268 6.48548 65.6569 6.48548C65.7518 6.48548 65.7993 6.45032 65.7993 6.38001C65.7993 6.23586 65.6358 5.99854 65.3088 5.66806C65.0733 5.41492 64.8395 5.21276 64.6074 5.06158C64.6672 5.44832 64.6321 5.84033 64.502 6.23762ZM63.1941 5.78408C63.1941 5.86494 63.2082 5.90889 63.2363 5.91592C63.4543 6.03546 63.674 6.08116 63.8955 6.05304C64.1346 5.89483 64.2541 5.72958 64.2541 5.55731C64.2541 5.41316 64.2172 5.27604 64.1434 5.14596C64.066 5.0229 63.9658 4.96138 63.8428 4.96138C63.7338 4.96138 63.5984 5.07037 63.4367 5.28835C63.275 5.50281 63.1941 5.66806 63.1941 5.78408Z" fill="#417F56"/>
<path d="M52.5623 10.2035C52.5623 10.1507 52.6027 10.1243 52.6836 10.1243C52.7855 10.1243 53.0053 10.2158 53.3428 10.3986C55.2062 11.3408 56.8041 11.9737 58.1366 12.2971C59.6203 12.6417 61.3131 12.8139 63.2152 12.8139C66.1368 12.8139 68.4467 12.5432 70.1448 12.0018C71.8465 11.4639 73.1368 10.446 74.0157 8.94831C74.0157 8.4807 73.8681 7.96212 73.5728 7.39256C73.2774 6.823 73.1298 6.50658 73.1298 6.44329C73.1298 6.30618 73.2229 6.0003 73.4093 5.52567C73.3952 5.36746 73.4268 5.28835 73.5042 5.28835C73.6483 5.28835 73.8681 5.67333 74.1634 6.44329C74.4658 7.1781 74.617 7.67207 74.617 7.92521C74.74 8.9026 74.3181 9.93801 73.3513 11.0314C72.3879 12.1284 70.8445 12.9388 68.7209 13.4626C66.8646 13.8247 65.068 14.0058 63.3312 14.0058C61.9495 14.0058 60.6399 13.9372 59.4023 13.8001C57.7393 13.5751 56.493 13.2464 55.6632 12.8139C55.1745 12.5713 54.6348 12.2075 54.0442 11.7223C53.777 11.4797 53.5028 11.2494 53.2215 11.0314C52.782 10.6377 52.5623 10.3617 52.5623 10.2035ZM71.247 2.82025C71.247 2.74993 71.3244 2.60227 71.4791 2.37726C71.6338 2.14873 71.7322 2.03447 71.7744 2.03447C71.8342 2.03447 71.9819 2.09599 72.2174 2.21905C72.4706 2.3632 72.5971 2.48097 72.5971 2.57239C72.5971 2.63919 72.525 2.77982 72.3809 2.99428C72.2508 3.24039 72.1383 3.36344 72.0434 3.36344C71.959 3.36344 71.8043 3.29313 71.5793 3.15249C71.3578 3.01186 71.247 2.90111 71.247 2.82025Z" fill="#417F56"/>
<path d="M75.4291 1.43326C75.517 0.863703 75.6576 0.499816 75.851 0.341605C75.8826 0.376763 75.909 0.401374 75.9301 0.415437C76.0215 0.904134 76.1305 1.69519 76.2571 2.78861C76.3837 3.87851 76.4891 4.85942 76.5735 5.73134C76.6614 6.60326 76.7053 7.06383 76.7053 7.11305C76.7053 7.21501 76.679 7.37674 76.6262 7.59824C76.577 7.81622 76.4733 7.96388 76.3151 8.04123C76.2026 7.14821 76.0901 6.26047 75.9776 5.378C75.8686 4.49553 75.749 3.62713 75.619 2.77279C75.4924 1.91493 75.4291 1.46842 75.4291 1.43326Z" fill="#417F56"/>
<path d="M76.3836 10.2245C77.347 10.1648 77.9148 10.1138 78.0871 10.0716C78.5968 9.9134 79.0943 9.59873 79.5795 9.12761C80.0682 8.65649 80.3987 8.16077 80.571 7.64043C80.4057 7.35213 80.2475 7.06911 80.0963 6.79136C79.8502 6.32727 79.7272 6.02315 79.7272 5.879L79.7641 5.76298C79.7782 5.73486 79.8239 5.61883 79.9012 5.41492C79.961 5.23561 80.019 5.14596 80.0752 5.14596C80.2405 5.14596 80.4356 5.38679 80.6606 5.86846C80.8892 6.28684 81.0034 6.6015 81.0034 6.81245C81.0034 8.21526 80.578 9.34559 79.7272 10.2035C79.3264 10.5902 78.9133 10.7836 78.4879 10.7836C78.2347 10.7836 77.5931 10.6939 76.563 10.5146C76.5348 10.4935 76.4751 10.4285 76.3836 10.3195V10.2245Z" fill="#417F56"/>
<path d="M80.9771 10.1349C81.0052 10.1138 81.0579 10.1033 81.1353 10.1033H81.6679C82.4168 10.1033 82.9248 10.0681 83.192 9.99778C83.5436 9.88175 83.9743 9.60752 84.4841 9.17508C85.0185 8.7356 85.3472 8.35062 85.4703 8.02013C84.8726 8.02013 84.4753 7.9797 84.2784 7.89884C83.9198 7.7793 83.7405 7.47342 83.7405 6.98121C83.7405 6.67182 83.8565 6.32375 84.0885 5.93702C84.3382 5.50457 84.5895 5.28835 84.8427 5.28835C85.029 5.28835 85.2417 5.51512 85.4808 5.96866C85.7023 6.32024 85.85 6.64018 85.9238 6.92847H86.2033V8.02013H85.813C85.7638 8.50883 85.4878 9.05554 84.9851 9.66026C84.4718 10.2298 83.9778 10.6007 83.5032 10.773C83.0777 10.7027 82.5908 10.6166 82.0423 10.5146C81.3322 10.3564 80.9771 10.2298 80.9771 10.1349ZM84.3048 6.7228C84.47 6.85992 84.6563 6.92847 84.8638 6.92847C84.8989 6.92847 84.9429 6.92144 84.9956 6.90738C84.9956 6.79839 84.9693 6.69116 84.9165 6.58568C84.8392 6.44153 84.753 6.36946 84.6581 6.36946C84.4858 6.36946 84.368 6.48724 84.3048 6.7228Z" fill="#417F56"/>
<path d="M86.0187 6.92847C86.198 6.93551 86.46 6.86343 86.8045 6.71225C87.1491 6.56107 87.3547 6.48548 87.4215 6.48548C87.5516 6.48548 87.7766 6.55931 88.0966 6.70698C88.4165 6.85464 88.6732 6.92847 88.8665 6.92847V8.02013C88.645 8.02013 88.3778 7.93927 88.0649 7.77754C87.752 7.61581 87.5376 7.53495 87.4215 7.53495C87.3688 7.53495 87.1877 7.61581 86.8783 7.77754C86.5689 7.93927 86.314 8.02013 86.1136 8.02013H86.0187V6.92847ZM87.2844 3.90664C87.4497 3.42497 87.6008 3.15953 87.738 3.1103C87.861 3.17359 87.9946 3.2527 88.1388 3.34762C88.2899 3.47068 88.3937 3.58142 88.4499 3.67987C88.3409 4.23536 88.1862 4.51311 87.9858 4.51311C87.912 4.51311 87.7784 4.43752 87.585 4.28634C87.4338 4.12813 87.3336 4.00156 87.2844 3.90664ZM86.0187 4.39182C86.0187 4.22657 86.1488 3.95762 86.409 3.58494C86.8063 3.85917 87.0612 4.05254 87.1737 4.16505V4.20196C87.1737 4.32853 87.1385 4.48323 87.0682 4.66605C86.9873 4.85942 86.9082 4.9561 86.8309 4.9561C86.743 4.9561 86.5848 4.88227 86.3562 4.73461C86.1312 4.58695 86.0187 4.47268 86.0187 4.39182Z" fill="#417F56"/>
<path d="M88.6292 6.92847C89.1285 6.92847 89.6049 6.87046 90.0584 6.75444C90.7334 6.59623 91.1254 6.36946 91.2344 6.07413C91.3434 5.7788 91.4436 5.59598 91.535 5.52567C91.5667 5.54676 91.5825 5.59422 91.5825 5.66806C91.5825 5.89658 91.5174 6.20246 91.3874 6.58568C91.4858 6.62084 91.5719 6.63842 91.6458 6.63842C92.3806 6.63842 92.8921 6.52943 93.1804 6.31145C93.3597 6.1673 93.4968 5.92998 93.5918 5.5995C93.6832 5.28308 93.8256 5.08619 94.0189 5.00884L94.0453 5.05103C94.0594 5.07213 94.0664 5.09674 94.0664 5.12486C94.0664 5.23385 94.0189 5.49754 93.924 5.91592C94.026 6.07413 94.1297 6.17082 94.2352 6.20598C94.2668 6.21301 94.4215 6.24817 94.6993 6.31145L94.9735 6.20598C94.9735 6.13214 94.9577 6.05304 94.926 5.96866C94.8979 5.88076 94.8838 5.81924 94.8838 5.78408C94.8838 5.74189 94.9313 5.57664 95.0262 5.28835C95.1493 4.95786 95.2108 4.78207 95.2108 4.76098C95.2882 4.76098 95.3673 4.88227 95.4481 5.12486C95.5184 5.31823 95.5536 5.47644 95.5536 5.5995C95.5536 6.02491 95.478 6.40989 95.3268 6.75444C95.1264 7.20798 94.8381 7.43475 94.4619 7.43475C94.2756 7.43475 93.9592 7.29939 93.5127 7.02867C93.4037 7.29236 93.1488 7.49628 92.748 7.64043C92.4386 7.74238 92.1099 7.79336 91.7618 7.79336C91.4172 7.79336 91.0973 7.74238 90.802 7.64043C90.1199 7.89356 89.4836 8.02013 88.8929 8.02013H88.6292V6.92847Z" fill="#417F56"/>
<path d="M95.3796 10.2245C96.3429 10.1648 96.9107 10.1138 97.083 10.0716C97.5928 9.9134 98.0902 9.59873 98.5754 9.12761C99.0641 8.65649 99.3946 8.16077 99.5669 7.64043C99.4016 7.35213 99.2434 7.06911 99.0923 6.79136C98.8462 6.32727 98.7231 6.02315 98.7231 5.879L98.76 5.76298C98.7741 5.73486 98.8198 5.61883 98.8971 5.41492C98.9569 5.23561 99.0149 5.14596 99.0712 5.14596C99.2364 5.14596 99.4315 5.38679 99.6565 5.86846C99.8851 6.28684 99.9993 6.6015 99.9993 6.81245C99.9993 8.21526 99.5739 9.34559 98.7231 10.2035C98.3223 10.5902 97.9092 10.7836 97.4838 10.7836C97.2306 10.7836 96.589 10.6939 95.5589 10.5146C95.5307 10.4935 95.471 10.4285 95.3796 10.3195V10.2245Z" fill="#417F56"/>
<path d="M21.2926 37.0524H19.538C17.2917 37.0524 15.3312 36.3612 13.6564 34.9788C12.088 33.6895 10.9715 31.9616 10.3069 29.795C10.0144 28.838 9.36979 28.3595 8.3729 28.3595C7.78806 28.3595 7.28962 28.5589 6.87757 28.9576C6.47881 29.3431 6.27944 29.8216 6.27944 30.3931C6.27944 30.9647 6.47881 31.4565 6.87757 31.8685C7.28962 32.2673 7.78806 32.4667 8.3729 32.4667H11.5829V37.0524H8.59221C6.73136 37.0524 5.12305 36.421 3.76728 35.1583C2.4248 33.8955 1.75357 32.3072 1.75357 30.3931C1.75357 28.5722 2.39822 27.017 3.68753 25.7277C4.97684 24.4384 6.53863 23.7937 8.3729 23.7937C9.79513 23.7937 11.0977 24.2324 12.2807 25.1096C13.4637 25.9736 14.2745 27.0901 14.7131 28.4592C15.5372 31.1308 17.1455 32.4667 19.538 32.4667H21.2926V37.0524Z" fill="#417F56"/>
<path d="M29.9854 20.1053H27.7125C27.0878 20.1053 26.5495 19.886 26.0976 19.4473C25.6456 18.9954 25.4197 18.4571 25.4197 17.8324C25.4197 17.2076 25.6456 16.6693 26.0976 16.2174C26.5495 15.7655 27.0878 15.5395 27.7125 15.5395C28.3372 15.5395 28.8689 15.7655 29.3075 16.2174C29.7595 16.6693 29.9854 17.2076 29.9854 17.8324V20.1053ZM37.8409 37.0524H36.0664C34.2189 37.0524 32.5175 36.4875 30.9624 35.3576V37.0524H19.538V32.4667H26.3966V23.9333H30.9624V26.7844C30.9624 28.4193 31.4342 29.7751 32.378 30.8517C33.3217 31.9284 34.5512 32.4667 36.0664 32.4667H37.8409V37.0524Z" fill="#417F56"/>
<path d="M54.2297 37.0524H52.4553C50.6077 37.0524 48.9063 36.4875 47.3512 35.3576V37.0524H35.9269V32.4667H42.7855V23.9333H47.3512V26.7844C47.3512 28.4193 47.8231 29.7751 48.7668 30.8517C49.7105 31.9284 50.94 32.4667 52.4553 32.4667H54.2297V37.0524ZM50.4814 45.167H48.1687C47.5439 45.167 47.0056 44.9411 46.5537 44.4891C46.1151 44.0372 45.8957 43.4989 45.8957 42.8742C45.8957 42.2362 46.1151 41.6978 46.5537 41.2592C47.0056 40.8206 47.5439 40.6013 48.1687 40.6013C48.8067 40.6013 49.3516 40.8206 49.8036 41.2592C50.2555 41.6978 50.4814 42.2362 50.4814 42.8742V45.167ZM45.2976 45.167H43.0048C42.3668 45.167 41.8218 44.9411 41.3699 44.4891C40.9313 44.0372 40.7119 43.4989 40.7119 42.8742C40.7119 42.2362 40.9313 41.6978 41.3699 41.2592C41.8218 40.8206 42.3668 40.6013 43.0048 40.6013C43.6295 40.6013 44.1678 40.8206 44.6197 41.2592C45.0717 41.6978 45.2976 42.2362 45.2976 42.8742V45.167Z" fill="#417F56"/>
<path d="M74.965 37.0524H52.3157V32.4667H70.1401C69.7546 31.297 69.0634 30.34 68.0665 29.5956C67.0829 28.8513 65.9531 28.4791 64.6771 28.4791L57.8783 28.4991V23.9333H64.6771C67.5083 23.9333 69.9274 24.9368 71.9344 26.9439C73.9548 28.9377 74.965 31.3568 74.965 34.2013V37.0524ZM63.2815 21.5807H61.0086C60.3838 21.5807 59.8455 21.3613 59.3936 20.9227C58.9417 20.4708 58.7157 19.9325 58.7157 19.3078C58.7157 18.683 58.9417 18.1447 59.3936 17.6928C59.8455 17.2409 60.3838 17.0149 61.0086 17.0149C61.6333 17.0149 62.165 17.2409 62.6036 17.6928C63.0555 18.1447 63.2815 18.683 63.2815 19.3078V21.5807Z" fill="#417F56"/>
<path d="M89.409 37.0524H87.6345C85.8002 37.0524 84.0989 36.4875 82.5305 35.3576V36.4542C82.5305 39.3253 81.4937 41.751 79.4202 43.7315C77.3599 45.7253 74.7813 46.7222 71.6843 46.7222V42.1564C73.5319 42.1564 75.0405 41.6048 76.2102 40.5016C77.3932 39.3984 77.9846 38.0492 77.9846 36.4542V23.9333H82.5305V26.7844C82.5305 28.4193 83.0023 29.7751 83.946 30.8517C84.903 31.9284 86.1325 32.4667 87.6345 32.4667H89.409V37.0524Z" fill="#417F56"/>
<path d="M99.0589 37.0524H87.6345V32.4667H94.4931V23.9333H99.0589V37.0524ZM99.2582 19.7863H96.9454C96.3207 19.7863 95.7824 19.5603 95.3305 19.1084C94.8919 18.6565 94.6725 18.1181 94.6725 17.4934C94.6725 16.8554 94.8919 16.3171 95.3305 15.8785C95.7824 15.4398 96.3207 15.2205 96.9454 15.2205C97.5835 15.2205 98.1284 15.4398 98.5803 15.8785C99.0323 16.3171 99.2582 16.8554 99.2582 17.4934V19.7863ZM94.0744 19.7863H91.7816C91.1436 19.7863 90.5986 19.5603 90.1467 19.1084C89.708 18.6565 89.4887 18.1181 89.4887 17.4934C89.4887 16.8554 89.708 16.3171 90.1467 15.8785C90.5986 15.4398 91.1436 15.2205 91.7816 15.2205C92.4063 15.2205 92.9446 15.4398 93.3965 15.8785C93.8484 16.3171 94.0744 16.8554 94.0744 17.4934V19.7863Z" fill="#417F56"/>
</svg>
